<?xml version="1.0" encoding="UTF-8"?>
<svg version="1.1" xmlns="http://www.w3.org/2000/svg" width="1280" height="1280">
<path d="M0 0 C178.86 0 357.72 0 542 0 C542 0.66 542 1.32 542 2 C544.475 2.495 544.475 2.495 547 3 C547 3.66 547 4.32 547 5 C547.639375 5.268125 548.27875 5.53625 548.9375 5.8125 C551 7 551 7 552 10 C552.66 10.33 553.32 10.66 554 11 C554.66 11.33 555.32 11.66 556 12 C556.33 12.99 556.66 13.98 557 15 C557.66 15.33 558.32 15.66 559 16 C559.66 16.33 560.32 16.66 561 17 C561.33 17.99 561.66 18.98 562 20 C562.66 20.33 563.32 20.66 564 21 C564.66 21.33 565.32 21.66 566 22 C566.33 22.99 566.66 23.98 567 25 C567.66 25.33 568.32 25.66 569 26 C569.66 26.33 570.32 26.66 571 27 C571.33 27.99 571.66 28.98 572 30 C572.66 30.33 573.32 30.66 574 31 C574.66 31.33 575.32 31.66 576 32 C576.33 32.99 576.66 33.98 577 35 C577.66 35.33 578.32 35.66 579 36 C579.66 36.33 580.32 36.66 581 37 C581.33 37.99 581.66 38.98 582 40 C582.66 40.33 583.32 40.66 584 41 C584.66 41.33 585.32 41.66 586 42 C586.33 42.99 586.66 43.98 587 45 C587.66 45.33 588.32 45.66 589 46 C589.66 46.33 590.32 46.66 591 47 C591.33 47.99 591.66 48.98 592 50 C592.66 50.33 593.32 50.66 594 51 C594.66 51.33 595.32 51.66 596 52 C596.33 52.99 596.66 53.98 597 55 C597.66 55.33 598.32 55.66 599 56 C599.66 56.33 600.32 56.66 601 57 C601.33 57.99 601.66 58.98 602 60 C602.66 60.33 603.32 60.66 604 61 C604.66 61.33 605.32 61.66 606 62 C606.33 62.99 606.66 63.98 607 65 C607.66 65.33 608.32 65.66 609 66 C609.66 66.33 610.32 66.66 611 67 C611.33 67.99 611.66 68.98 612 70 C612.66 70.33 613.32 70.66 614 71 C614.66 71.33 615.32 71.66 616 72 C616.33 72.99 616.66 73.98 617 75 C617.66 75.33 618.32 75.66 619 76 C619.66 76.33 620.32 76.66 621 77 C621.33 77.99 621.66 78.98 622 80 C622.66 80.33 623.32 80.66 624 81 C624.66 81.33 625.32 81.66 626 82 C626.33 82.99 626.66 83.98 627 85 C627.66 85.33 628.32 85.66 629 86 C629.66 86.33 630.32 86.66 631 87 C631.33 87.99 631.66 88.98 632 90 C632.66 90.33 633.32 90.66 634 91 C634.66 91.33 635.32 91.66 636 92 C636.33 92.99 636.66 93.98 637 95 C637.66 95.33 638.32 95.66 639 96 C639.66 96.33 640.32 96.66 641 97 C641.33 97.99 641.66 98.98 642 100 C642.66 100.33 643.32 100.66 644 101 C644.66 101.33 645.32 101.66 646 102 C646.33 102.99 646.66 103.98 647 105 C647.66 105.33 648.32 105.66 649 106 C649.66 106.33 650.32 106.66 651 107 C651.33 107.99 651.66 108.98 652 110 C652.66 110.33 653.32 110.66 654 111 C654.66 111.33 655.32 111.66 656 112 C656.33 112.99 656.66 113.98 657 115 C657.66 115.33 658.32 115.66 659 116 C659.66 116.33 660.32 116.66 661 117 C661.33 117.99 661.66 118.98 662 120 C662.66 120.33 663.32 120.66 664 121 C664.66 121.33 665.32 121.66 666 122 C666.33 122.99 666.66 123.98 667 125 C667.66 125.33 668.32 125.66 669 126 C669.66 126.33 670.32 126.66 671 127 C671.33 127.99 671.66 128.98 672 130 C672.66 130.33 673.32 130.66 674 131 C674.66 131.33 675.32 131.66 676 132 C676.33 132.99 676.66 133.98 677 135 C677.66 135.33 678.32 135.66 679 136 C679.66 136.33 680.32 136.66 681 137 C681.33 137.99 681.66 138.98 682 140 C682.66 140.33 683.32 140.66 684 141 C684.66 141.33 685.32 141.66 686 142 C686.33 142.99 686.66 143.98 687 145 C687.66 145.33 688.32 145.66 689 146 C689.66 146.33 690.32 146.66 691 147 C691.33 147.99 691.66 148.98 692 150 C692.66 150.33 693.32 150.66 694 151 C694.66 151.33 695.32 151.66 696 152 C696.33 152.99 696.66 153.98 697 155 C697.66 155.33 698.32 155.66 699 156 C699.66 156.33 700.32 156.66 701 157 C701.33 157.99 701.66 158.98 702 160 C702.66 160.33 703.32 160.66 704 161 C704.66 161.33 705.32 161.66 706 162 C706.33 162.99 706.66 163.98 707 165 C707.66 165.33 708.32 165.66 709 166 C709.66 166.33 710.32 166.66 711 167 C711.33 167.99 711.66 168.98 712 170 C712.66 170.33 713.32 170.66 714 171 C714.66 171.33 715.32 171.66 716 172 C716.33 172.99 716.66 173.98 717 175 C717.66 175.33 718.32 175.66 719 176 C719.66 176.33 720.32 176.66 721 177 C721.33 177.99 721.66 178.98 722 180 C722.66 180.33 723.32 180.66 724 181 C724.66 181.33 725.32 181.66 726 182 C726.33 182.99 726.66 183.98 727 185 C727.66 185.33 728.32 185.66 729 186 C729.66 186.33 730.32 186.66 731 187 C731.33 187.99 731.66 188.98 732 190 C732.66 190.33 733.32 190.66 734 191 C734.66 191.33 735.32 191.66 736 192 C736.33 192.99 736.66 193.98 737 195 C737.66 195.33 738.32 195.66 739 196 C739.66 196.33 740.32 196.66 741 197 C741.33 197.99 741.66 198.98 742 200 C742.66 200.33 743.32 200.66 744 201 C744.66 201.33 745.32 201.66 746 202 C746.33 202.99 746.66 203.98 747 205 C747.66 205.33 748.32 205.66 749 206 C749.66 206.33 750.32 206.66 751 207 C751.33 207.99 751.66 208.98 752 210 C752.66 210.33 753.32 210.66 754 211 C754.66 211.33 755.32 211.66 756 212 C756.33 212.99 756.66 213.98 757 215 C757.66 215.33 758.32 215.66 759 216 C759.66 216.33 760.32 216.66 761 217 C761.33 217.99 761.66 218.98 762 220 C762.66 220.33 763.32 220.66 764 221 C764.66 221.33 765.32 221.66 766 222 C766.33 222.99 766.66 223.98 767 225 C767.66 225.33 768.32 225.66 769 226 C769.66 226.33 770.32 226.66 771 227 C771.33 227.99 771.66 228.98 772 230 C772.66 230.33 773.32 230.66 774 231 C774.66 231.33 775.32 231.66 776 232 C776.33 232.99 776.66 233.98 777 235 C777.66 235.33 778.32 235.66 779 236 C779.66 236.33 780.32 236.66 781 237 C781.33 237.99 781.66 238.98 782 240 C782.66 240.33 783.32 240.66 784 241 C784.66 241.33 785.32 241.66 786 242 C786.33 242.99 786.66 243.98 787 245 C787.66 245.33 788.32 245.66 789 246 C789.66 246.33 790.32 246.66 791 247 C791.33 247.99 791.66 248.98 792 250 C792.66 250.33 793.32 250.66 794 251 C794.66 251.33 795.32 251.66 796 252 C796.33 252.99 796.66 253.98 797 255 C797.66 255.33 798.32 255.66 799 256 C799.66 256.33 800.32 256.66 801 257 C801.33 257.99 801.66 258.98 802 260 C802.66 260.33 803.32 260.66 804 261 C804.66 261.33 805.32 261.66 806 262 C806.33 262.99 806.66 263.98 807 265 C807.66 265.33 808.32 265.66 809 266 C809.66 266.33 810.32 266.66 811 267 C811.33 267.99 811.66 268.98 812 270 C812.66 270.33 813.32 270.66 814 271 C814.66 271.33 815.32 271.66 816 272 C816.33 272.99 816.66 273.98 817 275 C817.66 275.33 818.32 275.66 819 276 C819.66 276.33 820.32 276.66 821 277 C821.33 277.99 821.66 278.98 822 280 C822.66 280.33 823.32 280.66 824 281 C824.66 281.33 825.32 281.66 826 282 C826.33 282.99 826.66 283.98 827 285 C827.66 285 828.32 285 829 285 C829.33 286.65 829.66 288.3 830 290 C830.66 290 831.32 290 832 290 C832 587.66 832 885.32 832 1192 C831.34 1192 830.68 1192 830 1192 C829.67 1193.65 829.34 1195.3 829 1197 C828.34 1197 827.68 1197 827 1197 C827 1197.66 827 1198.32 827 1199 C825.35 1199.33 823.7 1199.66 822 1200 C822 1200.66 822 1201.32 822 1202 C497.94 1202 173.88 1202 -160 1202 C-160 1201.34 -160 1200.68 -160 1200 C-161.65 1199.67 -163.3 1199.34 -165 1199 C-165 1198.34 -165 1197.68 -165 1197 C-165.66 1197 -166.32 1197 -167 1197 C-167.33 1195.35 -167.66 1193.7 -168 1192 C-168.66 1192 -169.32 1192 -170 1192 C-170 1180.45 -170 1168.9 -170 1157 C-169.34 1157 -168.68 1157 -168 1157 C-168.061875 1155.081875 -168.061875 1155.081875 -168.125 1153.125 C-168.1953125 1150.9453125 -168.1953125 1150.9453125 -168 1149 C-167.34 1148.34 -166.68 1147.68 -166 1147 C-165.35232207 1144.42938689 -165.35232207 1144.42938689 -165 1142 C-164.34 1142 -163.68 1142 -163 1142 C-162.505 1138.535 -162.505 1138.535 -162 1135 C-161.34 1135 -160.68 1135 -160 1135 C-160 1133.35 -160 1131.7 -160 1130 C-159.34 1130 -158.68 1130 -158 1130 C-158 1129.01 -158 1128.02 -158 1127 C-157.01 1127 -156.02 1127 -155 1127 C-155 1125.35 -155 1123.7 -155 1122 C-154.34 1122 -153.68 1122 -153 1122 C-153 1121.34 -153 1120.68 -153 1120 C-152.01 1120 -151.02 1120 -150 1120 C-150 1118.35 -150 1116.7 -150 1115 C-149.34 1115 -148.68 1115 -148 1115 C-147.67 1114.01 -147.34 1113.02 -147 1112 C-146.34 1112 -145.68 1112 -145 1112 C-145 1111.34 -145 1110.68 -145 1110 C-144.34 1110 -143.68 1110 -143 1110 C-142.67 1109.01 -142.34 1108.02 -142 1107 C-141.34 1107 -140.68 1107 -140 1107 C-140 1106.34 -140 1105.68 -140 1105 C-139.34 1105 -138.68 1105 -138 1105 C-137.67 1104.01 -137.34 1103.02 -137 1102 C-134 1100 -134 1100 -130 1100 C-130 1099.01 -130 1098.02 -130 1097 C-129.34 1097 -128.68 1097 -128 1097 C-128 1096.34 -128 1095.68 -128 1095 C-126.35 1095 -124.7 1095 -123 1095 C-123 1094.01 -123 1093.02 -123 1092 C-122.01 1092 -121.02 1092 -120 1092 C-120 1091.34 -120 1090.68 -120 1090 C-118.35 1090 -116.7 1090 -115 1090 C-115 1089.34 -115 1088.68 -115 1088 C-112.69 1087.67 -110.38 1087.34 -108 1087 C-108 1086.34 -108 1085.68 -108 1085 C-107.030625 1084.690625 -106.06125 1084.38125 -105.0625 1084.0625 C-102.15934208 1083.30476658 -102.15934208 1083.30476658 -101 1082 C-98.32941149 1081.85884839 -95.67567762 1081.95752893 -93 1082 C-93 1081.34 -93 1080.68 -93 1080 C-85.41 1080 -77.82 1080 -70 1080 C-70 1067.46 -70 1054.92 -70 1042 C-69.34 1042 -68.68 1042 -68 1042 C-68 1039.69 -68 1037.38 -68 1035 C-67.01 1035 -66.02 1035 -65 1035 C-65 1033.35 -65 1031.7 -65 1030 C-64.34 1030 -63.68 1030 -63 1030 C-62.67 1028.35 -62.34 1026.7 -62 1025 C-61.34 1025 -60.68 1025 -60 1025 C-60 1024.01 -60 1023.02 -60 1022 C-59.34 1022 -58.68 1022 -58 1022 C-58 1021.34 -58 1020.68 -58 1020 C-57.01 1020 -56.02 1020 -55 1020 C-55 1019.01 -55 1018.02 -55 1017 C-54.34 1017 -53.68 1017 -53 1017 C-53 1016.34 -53 1015.68 -53 1015 C-52.01 1015 -51.02 1015 -50 1015 C-50 1014.01 -50 1013.02 -50 1012 C-49.34 1012 -48.68 1012 -48 1012 C-48 1011.34 -48 1010.68 -48 1010 C-47.01 1010 -46.02 1010 -45 1010 C-45 1009.34 -45 1008.68 -45 1008 C-43.35 1007.67 -41.7 1007.34 -40 1007 C-40 1006.34 -40 1005.68 -40 1005 C-38.35 1005 -36.7 1005 -35 1005 C-35 1004.01 -35 1003.02 -35 1002 C-32.69 1002 -30.38 1002 -28 1002 C-28 1001.34 -28 1000.68 -28 1000 C-22.06 1000 -16.12 1000 -10 1000 C-10 985.81 -10 971.62 -10 957 C-10.99 957 -11.98 957 -13 957 C-13 956.34 -13 955.68 -13 955 C-15.97 955 -18.94 955 -22 955 C-22.33 954.01 -22.66 953.02 -23 952 C-25.31 952 -27.62 952 -30 952 C-30 951.34 -30 950.68 -30 950 C-32.31 950 -34.62 950 -37 950 C-37.33 949.01 -37.66 948.02 -38 947 C-40.31 947 -42.62 947 -45 947 C-45 946.34 -45 945.68 -45 945 C-46.65 945 -48.3 945 -50 945 C-50 944.01 -50 943.02 -50 942 C-51.2684375 942.0928125 -51.2684375 942.0928125 -52.5625 942.1875 C-56.73619843 941.95984372 -59.25432947 940.79792186 -63 939 C-63 938.34 -63 937.68 -63 937 C-63.721875 936.87625 -64.44375 936.7525 -65.1875 936.625 C-67.95721894 936.0095069 -70.3970354 935.11555626 -73 934 C-73 933.34 -73 932.68 -73 932 C-74.32 932 -75.64 932 -77 932 C-77 931.34 -77 930.68 -77 930 C-77.99 930 -78.98 930 -80 930 C-80 929.01 -80 928.02 -80 927 C-81.65 927 -83.3 927 -85 927 C-85 926.34 -85 925.68 -85 925 C-86.65 924.67 -88.3 924.34 -90 924 C-90 923.34 -90 922.68 -90 922 C-90.99 922 -91.98 922 -93 922 C-93 921.34 -93 920.68 -93 920 C-94.65 919.67 -96.3 919.34 -98 919 C-98 918.34 -98 917.68 -98 917 C-98.66 917 -99.32 917 -100 917 C-100 916.34 -100 915.68 -100 915 C-101.65 914.67 -103.3 914.34 -105 914 C-105 913.34 -105 912.68 -105 912 C-105.99 912 -106.98 912 -108 912 C-108 911.34 -108 910.68 -108 910 C-108.66 910 -109.32 910 -110 910 C-110 909.01 -110 908.02 -110 907 C-110.5775 906.87625 -111.155 906.7525 -111.75 906.625 C-114.02335767 905.99351176 -115.9253529 905.11141809 -118 904 C-118 903.34 -118 902.68 -118 902 C-118.66 902 -119.32 902 -120 902 C-120 901.34 -120 900.68 -120 900 C-120.99 900 -121.98 900 -123 900 C-123 899.01 -123 898.02 -123 897 C-123.66 897 -124.32 897 -125 897 C-125 896.34 -125 895.68 -125 895 C-125.99 895 -126.98 895 -128 895 C-128 894.01 -128 893.02 -128 892 C-128.66 892 -129.32 892 -130 892 C-130 891.34 -130 890.68 -130 890 C-130.99 890 -131.98 890 -133 890 C-133 889.01 -133 888.02 -133 887 C-133.66 887 -134.32 887 -135 887 C-135 886.34 -135 885.68 -135 885 C-135.99 885 -136.98 885 -138 885 C-138 884.01 -138 883.02 -138 882 C-138.66 882 -139.32 882 -140 882 C-140 881.34 -140 880.68 -140 880 C-140.99 880 -141.98 880 -143 880 C-143 879.01 -143 878.02 -143 877 C-143.66 877 -144.32 877 -145 877 C-145 876.34 -145 875.68 -145 875 C-145.99 875 -146.98 875 -148 875 C-148 874.01 -148 873.02 -148 872 C-148.66 872 -149.32 872 -150 872 C-150 871.34 -150 870.68 -150 870 C-150.99 869.67 -151.98 869.34 -153 869 C-154.64820195 866.39757586 -155 865.13751221 -155 862 C-155.99 862 -156.98 862 -158 862 C-158 861.34 -158 860.68 -158 860 C-158.66 860 -159.32 860 -160 860 C-160 859.01 -160 858.02 -160 857 C-160.66 857 -161.32 857 -162 857 C-162.33 855.35 -162.66 853.7 -163 852 C-163.66 852 -164.32 852 -165 852 C-165 851.34 -165 850.68 -165 850 C-165.99 849.67 -166.98 849.34 -168 849 C-168 847.68 -168 846.36 -168 845 C-168.66 845 -169.32 845 -170 845 C-170 844.01 -170 843.02 -170 842 C-170.99 841.67 -171.98 841.34 -173 841 C-173 839.68 -173 838.36 -173 837 C-173.66 837 -174.32 837 -175 837 C-175 835.35 -175 833.7 -175 832 C-175.99 832 -176.98 832 -178 832 C-178 831.01 -178 830.02 -178 829 C-178.66 829 -179.32 829 -180 829 C-180.268125 828.278125 -180.53625 827.55625 -180.8125 826.8125 C-181.92722082 823.98866254 -181.92722082 823.98866254 -183.5 821.5 C-184.97347656 819.04420574 -185.96082166 816.6628945 -187 814 C-187.53625 813.030625 -188.0725 812.06125 -188.625 811.0625 C-190.10805573 807.75933043 -190.25541278 805.57577897 -190 802 C-190.99 802 -191.98 802 -193 802 C-193 800.35 -193 798.7 -193 797 C-193.66 797 -194.32 797 -195 797 C-195 794.69 -195 792.38 -195 790 C-195.99 789.67 -196.98 789.34 -198 789 C-198 786.69 -198 784.38 -198 782 C-198.66 782 -199.32 782 -200 782 C-200.185625 780.329375 -200.185625 780.329375 -200.375 778.625 C-200.6465813 774.96896323 -200.6465813 774.96896323 -203 773 C-203.37890625 771.08984375 -203.37890625 771.08984375 -203.5625 768.9375 C-203.55913448 765.23263383 -203.55913448 765.23263383 -205 764 C-205.07244053 761.98035801 -205.08377188 759.95832876 -205.0625 757.9375 C-205.05347656 756.83277344 -205.04445313 755.72804688 -205.03515625 754.58984375 C-205.02355469 753.73519531 -205.01195312 752.88054688 -205 752 C-205.99 752 -206.98 752 -208 752 C-208.06058594 751.00097656 -208.12117188 750.00195312 -208.18359375 748.97265625 C-208.26738281 747.68230469 -208.35117188 746.39195312 -208.4375 745.0625 C-208.51871094 743.77472656 -208.59992188 742.48695313 -208.68359375 741.16015625 C-208.64919188 738.13976043 -208.64919188 738.13976043 -210 737 C-210.09514592 734.29161914 -210.12554932 731.60881487 -210.11352539 728.90014648 C-210.11367142 728.05143982 -210.11381744 727.20273315 -210.1139679 726.32830811 C-210.11326848 723.50921109 -210.10547478 720.69017929 -210.09765625 717.87109375 C-210.09579217 715.92196183 -210.09436822 713.97282945 -210.09336853 712.0236969 C-210.08954255 706.88293168 -210.07971159 701.74219453 -210.06866455 696.60144043 C-210.05845215 691.35994852 -210.05387128 686.1184521 -210.04882812 680.87695312 C-210.03808939 670.58462306 -210.02101201 660.29231386 -210 650 C-209.34 650 -208.68 650 -208 650 C-207.505 647.525 -207.505 647.525 -207 645 C-206.34 645 -205.68 645 -205 645 C-205 644.34 -205 643.68 -205 643 C-203.35 642.67 -201.7 642.34 -200 642 C-200 641.34 -200 640.68 -200 640 C-176.9 640 -153.8 640 -130 640 C-130 573.01 -130 506.02 -130 437 C-129.34 437 -128.68 437 -128 437 C-128.04125 435.72125 -128.0825 434.4425 -128.125 433.125 C-128.1953125 430.9453125 -128.1953125 430.9453125 -128 429 C-127.34 428.34 -126.68 427.68 -126 427 C-125.35232207 424.42938689 -125.35232207 424.42938689 -125 422 C-124.34 422 -123.68 422 -123 422 C-122.67 419.69 -122.34 417.38 -122 415 C-121.34 415 -120.68 415 -120 415 C-120 413.35 -120 411.7 -120 410 C-119.34 410 -118.68 410 -118 410 C-118 409.01 -118 408.02 -118 407 C-117.01 407 -116.02 407 -115 407 C-115 405.35 -115 403.7 -115 402 C-114.34 402 -113.68 402 -113 402 C-113 401.34 -113 400.68 -113 400 C-112.01 400 -111.02 400 -110 400 C-110 398.35 -110 396.7 -110 395 C-109.34 395 -108.68 395 -108 395 C-107.67 394.01 -107.34 393.02 -107 392 C-106.34 392 -105.68 392 -105 392 C-105 391.34 -105 390.68 -105 390 C-104.34 390 -103.68 390 -103 390 C-102.67 389.01 -102.34 388.02 -102 387 C-101.34 387 -100.68 387 -100 387 C-100 386.34 -100 385.68 -100 385 C-99.34 385 -98.68 385 -98 385 C-97.67 384.01 -97.34 383.02 -97 382 C-96.34 382 -95.68 382 -95 382 C-95 381.34 -95 380.68 -95 380 C-93.35 380 -91.7 380 -90 380 C-90 379.01 -90 378.02 -90 377 C-89.34 377 -88.68 377 -88 377 C-88 376.34 -88 375.68 -88 375 C-86.35 375 -84.7 375 -83 375 C-83 374.01 -83 373.02 -83 372 C-82.01 372 -81.02 372 -80 372 C-80 371.34 -80 370.68 -80 370 C-78.35 370 -76.7 370 -75 370 C-75 369.34 -75 368.68 -75 368 C-72.69 367.67 -70.38 367.34 -68 367 C-68 366.34 -68 365.68 -68 365 C-67.030625 364.690625 -66.06125 364.38125 -65.0625 364.0625 C-62.15934208 363.30476658 -62.15934208 363.30476658 -61 362 C-58.32941149 361.85884839 -55.67567762 361.95752893 -53 362 C-53 361.34 -53 360.68 -53 360 C-38.81 360 -24.62 360 -10 360 C-10 244.5 -10 129 -10 10 C-9.34 10 -8.68 10 -8 10 C-7.67 8.35 -7.34 6.7 -7 5 C-6.34 5 -5.68 5 -5 5 C-5 4.34 -5 3.68 -5 3 C-3.35 2.67 -1.7 2.34 0 2 C0 1.34 0 0.68 0 0 Z M32 42 C32 146.94 32 251.88 32 360 C92.39 360.495 92.39 360.495 154 361 C154.33 361.33 154.66 361.66 155 362 C157.0279979 362.2253331 159.05674874 362.44767185 161.08984375 362.62109375 C163 363 163 363 165 365 C167.58354218 365.16687448 167.58354218 365.16687448 170 365 C170 365.66 170 366.32 170 367 C172.31 367.33 174.62 367.66 177 368 C177 368.66 177 369.32 177 370 C178.65 370 180.3 370 182 370 C182 370.66 182 371.32 182 372 C182.99 372 183.98 372 185 372 C185 372.99 185 373.98 185 375 C186.65 375 188.3 375 190 375 C190 375.66 190 376.32 190 377 C190.66 377 191.32 377 192 377 C192 377.99 192 378.98 192 380 C193.7015625 380.680625 193.7015625 380.680625 195.4375 381.375 C199 383 199 383 200 385 C200.66 385 201.32 385 202 385 C202 385.66 202 386.32 202 387 C203.33333333 388.66666667 203.33333333 388.66666667 205 390 C205.66 390 206.32 390 207 390 C207 390.66 207 391.32 207 392 C207.639375 392.61875 208.27875 393.2375 208.9375 393.875 C211.03417231 396.03520783 211.58396674 397.08776721 212 400 C212.99 400 213.98 400 215 400 C215 400.66 215 401.32 215 402 C215.66 402 216.32 402 217 402 C217 403.65 217 405.3 217 407 C217.99 407 218.98 407 220 407 C220 407.99 220 408.98 220 410 C220.66 410 221.32 410 222 410 C222 411.65 222 413.3 222 415 C222.66 415.33 223.32 415.66 224 416 C224.625 419.0625 224.625 419.0625 225 422 C225.66 422 226.32 422 227 422 C226.95875 422.78375 226.9175 423.5675 226.875 424.375 C226.71271266 427.16116119 226.71271266 427.16116119 229 429 C229.39764263 430.98821313 229.73775349 432.98944339 230 435 C230.66 435 231.32 435 232 435 C232 435.66 232 436.32 232 437 C240.36660509 438.01650342 249.26374234 439.09566582 257 435 C258.81476003 433.60414215 258.81476003 433.60414215 260 432 C260 431.34 260 430.68 260 430 C260.99 430 261.98 430 263 430 C263 429.34 263 428.68 263 428 C263.66 428 264.32 428 265 428 C266.01866229 426.34467377 267.01810813 424.67739862 268 423 C268.66 422.67 269.32 422.34 270 422 C270 421.34 270 420.68 270 420 C270.66 420 271.32 420 272 420 C272 419.01 272 418.02 272 417 C272.99 417 273.98 417 275 417 C275.66 414.69 276.32 412.38 277 410 C277.99 410 278.98 410 280 410 C280 409.01 280 408.02 280 407 C280.66 407 281.32 407 282 407 C282.12375 406.360625 282.2475 405.72125 282.375 405.0625 C282.58125 404.381875 282.7875 403.70125 283 403 C283.66 402.67 284.32 402.34 285 402 C285 401.34 285 400.68 285 400 C285.66 400 286.32 400 287 400 C287.33 398.35 287.66 396.7 288 395 C288.66 395 289.32 395 290 395 C290 394.01 290 393.02 290 392 C290.66 392 291.32 392 292 392 C292 391.34 292 390.68 292 390 C292.99 390 293.98 390 295 390 C295 389.01 295 388.02 295 387 C295.66 387 296.32 387 297 387 C297 386.34 297 385.68 297 385 C297.99 385 298.98 385 300 385 C300 384.01 300 383.02 300 382 C300.66 382 301.32 382 302 382 C302 381.34 302 380.68 302 380 C302.99 380 303.98 380 305 380 C305 379.01 305 378.02 305 377 C305.66 377 306.32 377 307 377 C307 376.34 307 375.68 307 375 C307.99 375 308.98 375 310 375 C310 374.01 310 373.02 310 372 C310.66 372 311.32 372 312 372 C312 371.34 312 370.68 312 370 C313.65 370 315.3 370 317 370 C317 369.01 317 368.02 317 367 C319.60416667 366.47916667 322.20833333 365.95833333 324.8125 365.4375 C325.534375 365.293125 326.25625 365.14875 327 365 C327 364.01 327 363.02 327 362 C329.64 362 332.28 362 335 362 C335 361.34 335 360.68 335 360 C340.55056196 360.06919089 346.10039306 360.15730848 351.65039062 360.26245117 C353.53572435 360.29556404 355.42115396 360.32363782 357.30664062 360.34643555 C360.02775672 360.38023376 362.74800488 360.4325603 365.46875 360.48828125 C366.30241089 360.49467117 367.13607178 360.5010611 367.99499512 360.50764465 C373.62481074 360.64690217 377.81533987 361.79388975 383 364 C385.39848232 364.7454276 387.80149741 365.46080886 390.21484375 366.15625 C390.80394531 366.4346875 391.39304687 366.713125 392 367 C392.33 367.99 392.66 368.98 393 370 C394.32 370 395.64 370 397 370 C397 370.66 397 371.32 397 372 C397.99 372 398.98 372 400 372 C400 372.99 400 373.98 400 375 C403.20447416 377.34594772 403.20447416 377.34594772 407 378 C407 378.66 407 379.32 407 380 C407.763125 380.763125 408.52625 381.52625 409.3125 382.3125 C411.7733583 384.7733583 413.22980032 387.0496672 415 390 C415.66 390 416.32 390 417 390 C417 390.66 417 391.32 417 392 C417.99 392 418.98 392 420 392 C420 392.99 420 393.98 420 395 C420.66 395 421.32 395 422 395 C422.12375 395.598125 422.2475 396.19625 422.375 396.8125 C422.95475985 399.26231348 422.95475985 399.26231348 425 402 C425.66 402 426.32 402 427 402 C427 402.99 427 403.98 427 405 C427.66 405.33 428.32 405.66 429 406 C429.625 408.0625 429.625 408.0625 430 410 C430.66 410 431.32 410 432 410 C432 410.66 432 411.32 432 412 C432.9590625 412.928125 432.9590625 412.928125 433.9375 413.875 C436.03417231 416.03520783 436.58396674 417.08776721 437 420 C437.99 420 438.98 420 440 420 C440 420.66 440 421.32 440 422 C440.66 422 441.32 422 442 422 C442 422.99 442 423.98 442 425 C444.25 427.75 444.25 427.75 447 430 C447.99 430 448.98 430 450 430 C450 430.66 450 431.32 450 432 C450.66 432 451.32 432 452 432 C452 432.99 452 433.98 452 435 C453.65 435 455.3 435 457 435 C457 435.66 457 436.32 457 437 C463.6 437 470.2 437 477 437 C477 436.34 477 435.68 477 435 C478.65 435 480.3 435 482 435 C482 434.01 482 433.02 482 432 C482.99 432 483.98 432 485 432 C485 431.34 485 430.68 485 430 C485.66 430 486.32 430 487 430 C488.66666667 428.66666667 488.66666667 428.66666667 490 427 C490 426.34 490 425.68 490 425 C490.66 425 491.32 425 492 425 C492 424.01 492 423.02 492 422 C492.99 422 493.98 422 495 422 C496.4606285 419.35261084 497 418.10551666 497 415 C497.99 415 498.98 415 500 415 C500 414.01 500 413.02 500 412 C500.66 412 501.32 412 502 412 C504.31592022 408.77885843 504.31592022 408.77885843 505 405 C505.66 405 506.32 405 507 405 C507 404.01 507 403.02 507 402 C507.99 402 508.98 402 510 402 C510 400.35 510 398.7 510 397 C510.66 397 511.32 397 512 397 C512 396.34 512 395.68 512 395 C512.99 395 513.98 395 515 395 C515 394.01 515 393.02 515 392 C515.66 392 516.32 392 517 392 C519.31592022 388.77885843 519.31592022 388.77885843 520 385 C520.66 385 521.32 385 522 385 C523.66666667 383.66666667 523.66666667 383.66666667 525 382 C525 381.34 525 380.68 525 380 C525.66 380 526.32 380 527 380 C528.66666667 378.66666667 528.66666667 378.66666667 530 377 C530 376.34 530 375.68 530 375 C530.99 375 531.98 375 533 375 C533 374.34 533 373.68 533 373 C534.32 372.67 535.64 372.34 537 372 C537 371.34 537 370.68 537 370 C537.99 370 538.98 370 540 370 C540.33 369.34 540.66 368.68 541 368 C543.0625 367.375 543.0625 367.375 545 367 C545 366.34 545 365.68 545 365 C546.65 365 548.3 365 550 365 C550.33 364.34 550.66 363.68 551 363 C553.32156597 362.59270772 555.6568787 362.25561323 558 362 C558 361.34 558 360.68 558 360 C571.86 360 585.72 360 600 360 C600 360.66 600 361.32 600 362 C602.31 362 604.62 362 607 362 C607 362.99 607 363.98 607 365 C608.65 365 610.3 365 612 365 C612 365.66 612 366.32 612 367 C613.65 367 615.3 367 617 367 C617 367.99 617 368.98 617 370 C618.7015625 370.680625 618.7015625 370.680625 620.4375 371.375 C624 373 624 373 625 375 C625.66 375 626.32 375 627 375 C627 375.66 627 376.32 627 377 C627.99 377 628.98 377 630 377 C630 377.99 630 378.98 630 380 C630.66 380 631.32 380 632 380 C632 380.66 632 381.32 632 382 C632.99 382 633.98 382 635 382 C635 382.99 635 383.98 635 385 C635.66 385 636.32 385 637 385 C637 385.66 637 386.32 637 387 C637.99 387 638.98 387 640 387 C640 387.99 640 388.98 640 390 C640.66 390 641.32 390 642 390 C643.20628008 392.33214148 644.1654738 394.49642139 645 397 C645.66 397 646.32 397 647 397 C647 397.99 647 398.98 647 400 C647.99 400 648.98 400 650 400 C650 400.99 650 401.98 650 403 C650.66 403 651.32 403 652 403 C652 404.32 652 405.64 652 407 C652.99 407 653.98 407 655 407 C655 407.99 655 408.98 655 410 C655.66 410 656.32 410 657 410 C657 411.65 657 413.3 657 415 C657.99 415 658.98 415 660 415 C660 415.66 660 416.32 660 417 C660.66 417 661.32 417 662 417 C662 417.99 662 418.98 662 420 C663.31200404 421.35432675 664.64631404 422.68733482 666 424 C666.33 424.99 666.66 425.98 667 427 C667.99 427 668.98 427 670 427 C670 427.99 670 428.98 670 430 C670.66 430 671.32 430 672 430 C672 430.66 672 431.32 672 432 C672.639375 432.12375 673.27875 432.2475 673.9375 432.375 C674.618125 432.58125 675.29875 432.7875 676 433 C676.33 433.66 676.66 434.32 677 435 C680.80627894 437.39496203 684.47144209 437.3994988 688.85546875 437.65625 C689.56316406 437.7696875 690.27085937 437.883125 691 438 C691.33 438.66 691.66 439.32 692 440 C695.3 440 698.6 440 702 440 C702 440.66 702 441.32 702 442 C703.65 442.33 705.3 442.66 707 443 C707 443.66 707 444.32 707 445 C707.66 445 708.32 445 709 445 C709.33 446.65 709.66 448.3 710 450 C710.66 450 711.32 450 712 450 C712 457.26 712 464.52 712 472 C711.34 472 710.68 472 710 472 C709.67 473.65 709.34 475.3 709 477 C708.34 477 707.68 477 707 477 C707 477.66 707 478.32 707 479 C705.35 479.33 703.7 479.66 702 480 C702 480.66 702 481.32 702 482 C691.44 482 680.88 482 670 482 C670 481.34 670 480.68 670 480 C668.865625 479.87625 667.73125 479.7525 666.5625 479.625 C665.386875 479.41875 664.21125 479.2125 663 479 C662.67 478.34 662.34 477.68 662 477 C660.35 477 658.7 477 657 477 C657 476.34 657 475.68 657 475 C656.360625 474.87625 655.72125 474.7525 655.0625 474.625 C654.381875 474.41875 653.70125 474.2125 653 474 C652.67 473.34 652.34 472.68 652 472 C651.34 472 650.68 472 650 472 C650 471.34 650 470.68 650 470 C649.360625 469.87625 648.72125 469.7525 648.0625 469.625 C647.381875 469.41875 646.70125 469.2125 646 469 C645.67 468.34 645.34 467.68 645 467 C644.01 467 643.02 467 642 467 C642 466.34 642 465.68 642 465 C641.34 465 640.68 465 640 465 C640 464.01 640 463.02 640 462 C639.01 462 638.02 462 637 462 C637 461.34 637 460.68 637 460 C636.34 460 635.68 460 635 460 C635 459.01 635 458.02 635 457 C634.01 457 633.02 457 632 457 C632 456.34 632 455.68 632 455 C631.34 455 630.68 455 630 455 C630 454.01 630 453.02 630 452 C629.34 451.67 628.68 451.34 628 451 C627.375 448.9375 627.375 448.9375 627 447 C626.34 447 625.68 447 625 447 C625 446.34 625 445.68 625 445 C623.66666667 443.33333333 623.66666667 443.33333333 622 442 C621.34 442 620.68 442 620 442 C620 440.35 620 438.7 620 437 C619.01 437 618.02 437 617 437 C617 436.34 617 435.68 617 435 C616.34 435 615.68 435 615 435 C614.814375 434.13375 614.814375 434.13375 614.625 433.25 C613.99351176 430.97664233 613.11141809 429.0746471 612 427 C611.34 427 610.68 427 610 427 C610 426.34 610 425.68 610 425 C609.34 424.67 608.68 424.34 608 424 C607.375 421.9375 607.375 421.9375 607 420 C606.34 420 605.68 420 605 420 C605 419.01 605 418.02 605 417 C604.01 417 603.02 417 602 417 C602 416.34 602 415.68 602 415 C601.34 415 600.68 415 600 415 C600 414.01 600 413.02 600 412 C599.01 412 598.02 412 597 412 C597 411.34 597 410.68 597 410 C594.4385343 407.70351351 593.52032428 407 590 407 C590 406.34 590 405.68 590 405 C586.77090994 404.94165647 583.54195662 404.90628885 580.3125 404.875 C579.40048828 404.85824219 578.48847656 404.84148437 577.54882812 404.82421875 C571.88477606 404.78302564 567.4007252 404.7541603 563.0625 408.8125 C562.381875 409.534375 561.70125 410.25625 561 411 C559.94488671 411.86327451 558.88198601 412.71709677 557.8125 413.5625 C554.79787132 415.7567154 554.79787132 415.7567154 554 419 C553.01 419.495 553.01 419.495 552 420 C552 420.66 552 421.32 552 422 C551.34 422 550.68 422 550 422 C550 422.99 550 423.98 550 425 C549.01 425 548.02 425 547 425 C546.34 427.31 545.68 429.62 545 432 C544.01 432 543.02 432 542 432 C542 432.99 542 433.98 542 435 C541.34 435 540.68 435 540 435 C539.87625 435.639375 539.7525 436.27875 539.625 436.9375 C539.315625 437.9584375 539.315625 437.9584375 539 439 C538.34 439.33 537.68 439.66 537 440 C537 440.66 537 441.32 537 442 C536.34 442 535.68 442 535 442 C534.67 443.65 534.34 445.3 534 447 C533.34 447 532.68 447 532 447 C532 447.99 532 448.98 532 450 C531.34 450 530.68 450 530 450 C530 450.66 530 451.32 530 452 C529.01 452 528.02 452 527 452 C527 452.99 527 453.98 527 455 C526.34 455 525.68 455 525 455 C525 455.66 525 456.32 525 457 C524.01 457 523.02 457 522 457 C522 457.99 522 458.98 522 460 C521.34 460 520.68 460 520 460 C520 460.66 520 461.32 520 462 C519.01 462 518.02 462 517 462 C517 462.99 517 463.98 517 465 C516.34 465 515.68 465 515 465 C515 465.66 515 466.32 515 467 C514.01 467 513.02 467 512 467 C512 467.99 512 468.98 512 470 C509.69 470.66 507.38 471.32 505 472 C505 472.99 505 473.98 505 475 C503.35 475 501.7 475 500 475 C500 475.66 500 476.32 500 477 C498.35 477 496.7 477 495 477 C494.67 477.66 494.34 478.32 494 479 C491.67843403 479.40729228 489.3431213 479.74438677 487 480 C487 480.66 487 481.32 487 482 C473.8 482 460.6 482 447 482 C447 481.34 447 480.68 447 480 C445.88625 479.87625 444.7725 479.7525 443.625 479.625 C440 479 440 479 438 477 C435.93956146 476.43116727 433.87813659 476.05144316 431.77734375 475.66015625 C431.19082031 475.44230469 430.60429688 475.22445313 430 475 C429.67 474.01 429.34 473.02 429 472 C427.68 472 426.36 472 425 472 C425 471.34 425 470.68 425 470 C424.01 470 423.02 470 422 470 C422 469.01 422 468.02 422 467 C418.79552584 464.65405228 418.79552584 464.65405228 415 464 C415 463.34 415 462.68 415 462 C414.236875 461.236875 413.47375 460.47375 412.6875 459.6875 C410.2266417 457.2266417 408.77019968 454.9503328 407 452 C406.34 452 405.68 452 405 452 C405 451.34 405 450.68 405 450 C404.01 450 403.02 450 402 450 C402 449.01 402 448.02 402 447 C401.34 447 400.68 447 400 447 C400 446.01 400 445.02 400 444 C399.34 444 398.68 444 398 444 C397.67 442.68 397.34 441.36 397 440 C396.34 440 395.68 440 395 440 C395 439.01 395 438.02 395 437 C394.34 436.67 393.68 436.34 393 436 C392.375 433.9375 392.375 433.9375 392 432 C391.34 432 390.68 432 390 432 C390 431.34 390 430.68 390 430 C389.0409375 429.071875 389.0409375 429.071875 388.0625 428.125 C385.96582769 425.96479217 385.41603326 424.91223279 385 422 C384.01 422 383.02 422 382 422 C382 421.34 382 420.68 382 420 C381.34 420 380.68 420 380 420 C380 419.01 380 418.02 380 417 C379.01 417 378.02 417 377 417 C376.34 415.35 375.68 413.7 375 412 C374.01 412 373.02 412 372 412 C372 411.34 372 410.68 372 410 C371.34 410 370.68 410 370 410 C370 409.01 370 408.02 370 407 C368.35 407 366.7 407 365 407 C365 406.34 365 405.68 365 405 C358.4 405 351.8 405 345 405 C345 405.66 345 406.32 345 407 C343.35 407 341.7 407 340 407 C340 407.99 340 408.98 340 410 C339.01 410 338.02 410 337 410 C337 410.66 337 411.32 337 412 C336.34 412 335.68 412 335 412 C333.33333333 413.33333333 333.33333333 413.33333333 332 415 C332 415.66 332 416.32 332 417 C331.34 417 330.68 417 330 417 C330 417.99 330 418.98 330 420 C329.01 420 328.02 420 327 420 C324.63019987 422.95377498 324.63019987 422.95377498 325 427 C324.01 427 323.02 427 322 427 C322 427.99 322 428.98 322 430 C321.34 430 320.68 430 320 430 C317.68407978 433.22114157 317.68407978 433.22114157 317 437 C316.34 437 315.68 437 315 437 C315 437.99 315 438.98 315 440 C314.01 440 313.02 440 312 440 C312 441.65 312 443.3 312 445 C311.34 445 310.68 445 310 445 C310 445.66 310 446.32 310 447 C309.01 447 308.02 447 307 447 C307 447.99 307 448.98 307 450 C306.34 450 305.68 450 305 450 C304.67 451.32 304.34 452.64 304 454 C303.34 454 302.68 454 302 454 C302 454.99 302 455.98 302 457 C301.34 457 300.68 457 300 457 C298.33333333 458.33333333 298.33333333 458.33333333 297 460 C297 460.66 297 461.32 297 462 C296.34 462 295.68 462 295 462 C293.33333333 463.33333333 293.33333333 463.33333333 292 465 C292 465.66 292 466.32 292 467 C291.401875 467.12375 290.80375 467.2475 290.1875 467.375 C287.73768652 467.95475985 287.73768652 467.95475985 285 470 C285 470.66 285 471.32 285 472 C284.01 472 283.02 472 282 472 C281.67 472.66 281.34 473.32 281 474 C278.9375 474.625 278.9375 474.625 277 475 C277 475.66 277 476.32 277 477 C275.35 477 273.7 477 272 477 C272 477.66 272 478.32 272 479 C269.36 479.33 266.72 479.66 264 480 C264 480.66 264 481.32 264 482 C253.44 482 242.88 482 232 482 C232 534.14 232 586.28 232 640 C255.1 640 278.2 640 302 640 C302 640.66 302 641.32 302 642 C303.65 642.33 305.3 642.66 307 643 C307 643.66 307 644.32 307 645 C307.66 645 308.32 645 309 645 C309.33 646.65 309.66 648.3 310 650 C310.66 650 311.32 650 312 650 C312 678.71 312 707.42 312 737 C311.34 737 310.68 737 310 737 C310 741.95 310 746.9 310 752 C309.01 752 308.02 752 307 752 C306.93941406 752.85464844 306.87882812 753.70929687 306.81640625 754.58984375 C306.73261719 755.69457031 306.64882813 756.79929687 306.5625 757.9375 C306.48128906 759.03964844 306.40007812 760.14179687 306.31640625 761.27734375 C306 764 306 764 305 765 C304.76807135 766.51469448 304.58784762 768.03754562 304.4375 769.5625 C304.35371094 770.38878906 304.26992188 771.21507812 304.18359375 772.06640625 C304.12300781 772.70449219 304.06242187 773.34257813 304 774 C303.34 774 302.68 774 302 774 C302 776.64 302 779.28 302 782 C301.34 782 300.68 782 300 782 C299.87625 783.134375 299.7525 784.26875 299.625 785.4375 C299.41875 786.613125 299.2125 787.78875 299 789 C298.34 789.33 297.68 789.66 297 790 C297 792.31 297 794.62 297 797 C296.34 797 295.68 797 295 797 C295 798.65 295 800.3 295 802 C294.01 802 293.02 802 292 802 C291.71125 803.051875 291.4225 804.10375 291.125 805.1875 C289.40667262 811.01072058 286.94179185 816.14318462 284.12109375 821.5 C282.99428239 824.01275006 282.43090651 826.28867817 282 829 C281.34 829 280.68 829 280 829 C280 829.99 280 830.98 280 832 C279.01 832 278.02 832 277 832 C277 833.65 277 835.3 277 837 C276.34 837 275.68 837 275 837 C274.67 838.65 274.34 840.3 274 842 C273.34 842 272.68 842 272 842 C272 842.99 272 843.98 272 845 C271.34 845 270.68 845 270 845 C269.814375 845.9590625 269.814375 845.9590625 269.625 846.9375 C269.41875 847.618125 269.2125 848.29875 269 849 C268.34 849.33 267.68 849.66 267 850 C267 850.66 267 851.32 267 852 C266.34 852 265.68 852 265 852 C264.67 853.65 264.34 855.3 264 857 C263.34 857 262.68 857 262 857 C262 857.99 262 858.98 262 860 C261.34 860 260.68 860 260 860 C260 860.66 260 861.32 260 862 C259.01 862 258.02 862 257 862 C256.54625 863.134375 256.0925 864.26875 255.625 865.4375 C254 869 254 869 252 870 C252 870.66 252 871.32 252 872 C251.34 872 250.68 872 250 872 C250 872.99 250 873.98 250 875 C249.01 875 248.02 875 247 875 C247 875.66 247 876.32 247 877 C246.34 877 245.68 877 245 877 C245 877.99 245 878.98 245 880 C244.01 880 243.02 880 242 880 C242 880.66 242 881.32 242 882 C241.34 882 240.68 882 240 882 C240 882.99 240 883.98 240 885 C239.01 885 238.02 885 237 885 C237 885.66 237 886.32 237 887 C236.34 887 235.68 887 235 887 C235 887.99 235 888.98 235 890 C234.01 890 233.02 890 232 890 C232 890.66 232 891.32 232 892 C231.34 892 230.68 892 230 892 C230 892.99 230 893.98 230 895 C229.01 895 228.02 895 227 895 C227 895.66 227 896.32 227 897 C226.34 897 225.68 897 225 897 C225 897.99 225 898.98 225 900 C224.01 900 223.02 900 222 900 C222 900.66 222 901.32 222 902 C221.34 902 220.68 902 220 902 C219.67 902.66 219.34 903.32 219 904 C216.9375 904.625 216.9375 904.625 215 905 C215 905.66 215 906.32 215 907 C214.01 907 213.02 907 212 907 C212 907.99 212 908.98 212 910 C211.34 910 210.68 910 210 910 C210 910.66 210 911.32 210 912 C209.01 912 208.02 912 207 912 C207 912.66 207 913.32 207 914 C205.35 914.33 203.7 914.66 202 915 C202 915.66 202 916.32 202 917 C201.34 917 200.68 917 200 917 C199.67 917.66 199.34 918.32 199 919 C196.9375 919.625 196.9375 919.625 195 920 C195 920.66 195 921.32 195 922 C194.01 922 193.02 922 192 922 C191.67 922.66 191.34 923.32 191 924 C188.9375 924.625 188.9375 924.625 187 925 C187 925.66 187 926.32 187 927 C185.35 927 183.7 927 182 927 C182 927.99 182 928.98 182 930 C181.01 930 180.02 930 179 930 C179 930.66 179 931.32 179 932 C177.68 932 176.36 932 175 932 C174.67 932.66 174.34 933.32 174 934 C171.70985999 934.88082308 169.38652273 935.53303769 167.03125 936.21875 C164.81437525 936.80935836 164.81437525 936.80935836 164 939 C161.27734375 939.8515625 161.27734375 939.8515625 157.9375 940.625 C156.28041016 941.01558594 156.28041016 941.01558594 154.58984375 941.4140625 C153.30787109 941.70410156 153.30787109 941.70410156 152 942 C152 942.99 152 943.98 152 945 C150.35 945 148.7 945 147 945 C147 945.66 147 946.32 147 947 C144.69 947 142.38 947 140 947 C139.67 947.66 139.34 948.32 139 949 C136.67843403 949.40729228 134.3431213 949.74438677 132 950 C132 950.66 132 951.32 132 952 C129.69 952 127.38 952 125 952 C124.67 952.66 124.34 953.32 124 954 C121.93359375 954.4140625 121.93359375 954.4140625 119.4375 954.625 C118.61121094 954.69976563 117.78492188 954.77453125 116.93359375 954.8515625 C116.29550781 954.90054688 115.65742188 954.94953125 115 955 C115 955.66 115 956.32 115 957 C114.01 957 113.02 957 112 957 C112 971.19 112 985.38 112 1000 C117.94 1000 123.88 1000 130 1000 C130 1000.66 130 1001.32 130 1002 C132.31 1002 134.62 1002 137 1002 C137 1002.99 137 1003.98 137 1005 C138.65 1005 140.3 1005 142 1005 C142 1005.66 142 1006.32 142 1007 C143.65 1007.33 145.3 1007.66 147 1008 C147 1008.66 147 1009.32 147 1010 C147.99 1010 148.98 1010 150 1010 C150 1010.66 150 1011.32 150 1012 C150.66 1012 151.32 1012 152 1012 C152 1012.99 152 1013.98 152 1015 C152.99 1015 153.98 1015 155 1015 C155 1015.66 155 1016.32 155 1017 C155.66 1017 156.32 1017 157 1017 C157 1017.99 157 1018.98 157 1020 C157.99 1020 158.98 1020 160 1020 C160 1020.66 160 1021.32 160 1022 C160.66 1022 161.32 1022 162 1022 C162 1022.99 162 1023.98 162 1025 C162.66 1025 163.32 1025 164 1025 C164.33 1026.65 164.66 1028.3 165 1030 C165.66 1030 166.32 1030 167 1030 C167 1031.65 167 1033.3 167 1035 C167.99 1035 168.98 1035 170 1035 C170 1037.31 170 1039.62 170 1042 C170.66 1042 171.32 1042 172 1042 C172 1054.54 172 1067.08 172 1080 C179.19498801 1080.28925941 179.19498801 1080.28925941 186.39038086 1080.56811523 C187.28120361 1080.60622314 188.17202637 1080.64433105 189.08984375 1080.68359375 C190.00628662 1080.72025146 190.92272949 1080.75690918 191.86694336 1080.79467773 C194 1081 194 1081 195 1082 C197.0279979 1082.2253331 199.05674874 1082.44767185 201.08984375 1082.62109375 C203 1083 203 1083 205 1085 C207.58354218 1085.16687448 207.58354218 1085.16687448 210 1085 C210 1085.66 210 1086.32 210 1087 C210.969375 1087.12375 211.93875 1087.2475 212.9375 1087.375 C213.948125 1087.58125 214.95875 1087.7875 216 1088 C216.33 1088.66 216.66 1089.32 217 1090 C218.65 1090 220.3 1090 222 1090 C222 1090.66 222 1091.32 222 1092 C222.99 1092 223.98 1092 225 1092 C225 1092.99 225 1093.98 225 1095 C226.65 1095 228.3 1095 230 1095 C230 1095.66 230 1096.32 230 1097 C230.66 1097 231.32 1097 232 1097 C232 1097.99 232 1098.98 232 1100 C233.65 1100 235.3 1100 237 1100 C237 1100.66 237 1101.32 237 1102 C238.33333333 1103.66666667 238.33333333 1103.66666667 240 1105 C240.66 1105 241.32 1105 242 1105 C242 1105.66 242 1106.32 242 1107 C243.33333333 1108.66666667 243.33333333 1108.66666667 245 1110 C245.66 1110 246.32 1110 247 1110 C247 1110.66 247 1111.32 247 1112 C247.639375 1112.61875 248.27875 1113.2375 248.9375 1113.875 C251.03417231 1116.03520783 251.58396674 1117.08776721 252 1120 C252.99 1120 253.98 1120 255 1120 C255 1120.66 255 1121.32 255 1122 C255.66 1122 256.32 1122 257 1122 C257 1123.65 257 1125.3 257 1127 C257.99 1127 258.98 1127 260 1127 C260 1127.99 260 1128.98 260 1130 C260.66 1130 261.32 1130 262 1130 C262 1131.65 262 1133.3 262 1135 C262.66 1135.33 263.32 1135.66 264 1136 C264.625 1139.0625 264.625 1139.0625 265 1142 C265.66 1142 266.32 1142 267 1142 C266.95875 1142.78375 266.9175 1143.5675 266.875 1144.375 C266.71271266 1147.16116119 266.71271266 1147.16116119 269 1149 C269.56520003 1151.65537372 269.73788198 1154.29144713 270 1157 C270.66 1157 271.32 1157 272 1157 C272 1157.99 272 1158.98 272 1160 C442.94 1160 613.88 1160 790 1160 C790 883.46 790 606.92 790 322 C700.9 322 611.8 322 520 322 C520 321.34 520 320.68 520 320 C518.35 319.67 516.7 319.34 515 319 C515 318.34 515 317.68 515 317 C514.34 317 513.68 317 513 317 C512.67 315.35 512.34 313.7 512 312 C511.34 312 510.68 312 510 312 C510 222.9 510 133.8 510 42 C352.26 42 194.52 42 32 42 Z M552 76 C552 143.32 552 210.64 552 280 C619.32 280 686.64 280 756 280 C754.87563746 276.62691239 753.92657267 275.84876903 751.25 273.625 C748.01115563 270.87688963 744.96564503 268.0457976 742 265 C741.175 264.175 740.35 263.35 739.5 262.5 C557 80 557 80 554.75 77.6875 C553.28520617 75.88431074 553.28520617 75.88431074 552 76 Z M-28 402 C-28 402.66 -28 403.32 -28 404 C-36.415 404.495 -36.415 404.495 -45 405 C-45 405.66 -45 406.32 -45 407 C-46.65 407 -48.3 407 -50 407 C-50.33 407.66 -50.66 408.32 -51 409 C-53.22596002 409.84692901 -55.48363587 410.46846299 -57.7734375 411.12109375 C-60.17914943 412.07071688 -61.4010772 412.98329415 -63 415 C-63 415.66 -63 416.32 -63 417 C-63.99 417 -64.98 417 -66 417 C-66 417.66 -66 418.32 -66 419 C-67.32 419.33 -68.64 419.66 -70 420 C-70.33 421.32 -70.66 422.64 -71 424 C-71.66 424 -72.32 424 -73 424 C-73 424.99 -73 425.98 -73 427 C-73.66 427 -74.32 427 -75 427 C-77.76375615 429.19121331 -78.60994848 431.28290496 -79.5625 434.625 C-80.25390625 437.0390625 -80.25390625 437.0390625 -81 439 C-81.99 439.495 -81.99 439.495 -83 440 C-83 441.65 -83 443.3 -83 445 C-83.66 445 -84.32 445 -85 445 C-85.33 450.61 -85.66 456.22 -86 462 C-86.66 462 -87.32 462 -88 462 C-88 467.94 -88 473.88 -88 480 C-78.1 480 -68.2 480 -58 480 C-58 480.66 -58 481.32 -58 482 C-56.35 482.33 -54.7 482.66 -53 483 C-53 483.66 -53 484.32 -53 485 C-52.34 485 -51.68 485 -51 485 C-50.67 486.65 -50.34 488.3 -50 490 C-49.34 490 -48.68 490 -48 490 C-48 497.26 -48 504.52 -48 512 C-48.66 512 -49.32 512 -50 512 C-50.33 513.65 -50.66 515.3 -51 517 C-51.66 517 -52.32 517 -53 517 C-53 517.66 -53 518.32 -53 519 C-55.475 519.495 -55.475 519.495 -58 520 C-58 520.66 -58 521.32 -58 522 C-67.9 522 -77.8 522 -88 522 C-88 534.54 -88 547.08 -88 560 C-78.1 560 -68.2 560 -58 560 C-58 560.66 -58 561.32 -58 562 C-56.35 562.33 -54.7 562.66 -53 563 C-53 563.66 -53 564.32 -53 565 C-52.34 565 -51.68 565 -51 565 C-50.505 567.475 -50.505 567.475 -50 570 C-49.34 570 -48.68 570 -48 570 C-48 577.26 -48 584.52 -48 592 C-48.66 592 -49.32 592 -50 592 C-50.33 593.65 -50.66 595.3 -51 597 C-51.66 597 -52.32 597 -53 597 C-53 597.66 -53 598.32 -53 599 C-54.65 599.33 -56.3 599.66 -58 600 C-58 600.66 -58 601.32 -58 602 C-67.9 602 -77.8 602 -88 602 C-88 614.54 -88 627.08 -88 640 C3.74 640 95.48 640 190 640 C190 627.46 190 614.92 190 602 C180.1 602 170.2 602 160 602 C160 601.34 160 600.68 160 600 C158.35 599.67 156.7 599.34 155 599 C155 598.34 155 597.68 155 597 C154.34 597 153.68 597 153 597 C152.67 595.35 152.34 593.7 152 592 C151.34 592 150.68 592 150 592 C150 584.74 150 577.48 150 570 C150.66 570 151.32 570 152 570 C152.33 568.35 152.66 566.7 153 565 C153.66 565 154.32 565 155 565 C155 564.34 155 563.68 155 563 C156.65 562.67 158.3 562.34 160 562 C160 561.34 160 560.68 160 560 C169.9 560 179.8 560 190 560 C190 547.46 190 534.92 190 522 C180.1 522 170.2 522 160 522 C160 521.34 160 520.68 160 520 C158.35 519.67 156.7 519.34 155 519 C155 518.34 155 517.68 155 517 C154.34 517 153.68 517 153 517 C152.67 515.35 152.34 513.7 152 512 C151.34 512 150.68 512 150 512 C150 504.74 150 497.48 150 490 C150.66 490 151.32 490 152 490 C152.33 488.35 152.66 486.7 153 485 C153.66 485 154.32 485 155 485 C155 484.34 155 483.68 155 483 C157.475 482.505 157.475 482.505 160 482 C160 481.34 160 480.68 160 480 C169.9 480 179.8 480 190 480 C190 474.06 190 468.12 190 462 C189.34 462 188.68 462 188 462 C187.67 456.39 187.34 450.78 187 445 C186.34 445 185.68 445 185 445 C185 443.35 185 441.7 185 440 C184.34 439.67 183.68 439.34 183 439 C182.1484375 436.93359375 182.1484375 436.93359375 181.375 434.4375 C181.11460937 433.61121094 180.85421875 432.78492188 180.5859375 431.93359375 C180.29589844 430.97646484 180.29589844 430.97646484 180 430 C179.01 430 178.02 430 177 430 C177 429.01 177 428.02 177 427 C176.34 427 175.68 427 175 427 C175 426.01 175 425.02 175 424 C174.34 424 173.68 424 173 424 C172.67 422.68 172.34 421.36 172 420 C170.68 419.67 169.36 419.34 168 419 C168 418.34 168 417.68 168 417 C167.01 417 166.02 417 165 417 C165 416.34 165 415.68 165 415 C164.01 415 163.02 415 162 415 C162 414.01 162 413.02 162 412 C161.04287109 411.70996094 161.04287109 411.70996094 160.06640625 411.4140625 C158.82697266 411.02347656 158.82697266 411.02347656 157.5625 410.625 C156.73878906 410.36976563 155.91507813 410.11453125 155.06640625 409.8515625 C153 409 153 409 152 407 C150.35 407 148.7 407 147 407 C147 406.34 147 405.68 147 405 C141.39 404.67 135.78 404.34 130 404 C130 403.34 130 402.68 130 402 C77.86 402 25.72 402 -28 402 Z M-168 682 C-169.66410059 698.10477433 -169.66410059 698.10477433 -166 703 C-165.69702148 705.98681641 -165.69702148 705.98681641 -165.62109375 709.6015625 C-165.58693359 710.89578125 -165.55277344 712.19 -165.51757812 713.5234375 C-165.49022808 714.89061201 -165.46354345 716.25779998 -165.4375 717.625 C-165.37977604 720.30490594 -165.31428933 722.9843772 -165.24609375 725.6640625 C-165.22216553 726.85467285 -165.1982373 728.0452832 -165.17358398 729.27197266 C-165.30718386 731.91307527 -165.30718386 731.91307527 -164 733 C-163.76572222 735.01594582 -163.58663876 737.038474 -163.4375 739.0625 C-163.35371094 740.16722656 -163.26992187 741.27195312 -163.18359375 742.41015625 C-163.12300781 743.26480469 -163.06242187 744.11945312 -163 745 C-162.34 745 -161.68 745 -161 745 C-160.67 748.96 -160.34 752.92 -160 757 C-159.34 757 -158.68 757 -158 757 C-158 759.64 -158 762.28 -158 765 C-157.01 765 -156.02 765 -155 765 C-155 767.31 -155 769.62 -155 772 C-154.34 772 -153.68 772 -153 772 C-153 774.64 -153 777.28 -153 780 C-152.01 780 -151.02 780 -150 780 C-150 781.65 -150 783.3 -150 785 C-149.34 785 -148.68 785 -148 785 C-148 786.65 -148 788.3 -148 790 C-147.34 790.33 -146.68 790.66 -146 791 C-145.1484375 793.06640625 -145.1484375 793.06640625 -144.375 795.5625 C-144.11460937 796.38878906 -143.85421875 797.21507812 -143.5859375 798.06640625 C-143.39257812 798.70449219 -143.19921875 799.34257813 -143 800 C-142.34 800 -141.68 800 -141 800 C-140.67 801.65 -140.34 803.3 -140 805 C-139.34 805 -138.68 805 -138 805 C-138 806.65 -138 808.3 -138 810 C-137.01 810 -136.02 810 -135 810 C-135 811.65 -135 813.3 -135 815 C-134.34 815 -133.68 815 -133 815 C-133 815.66 -133 816.32 -133 817 C-132.34 817.33 -131.68 817.66 -131 818 C-130.375 820.0625 -130.375 820.0625 -130 822 C-129.34 822 -128.68 822 -128 822 C-128 822.99 -128 823.98 -128 825 C-127.01 825 -126.02 825 -125 825 C-125 826.65 -125 828.3 -125 830 C-124.34 830 -123.68 830 -123 830 C-123 830.66 -123 831.32 -123 832 C-121.66666667 833.66666667 -121.66666667 833.66666667 -120 835 C-119.34 835 -118.68 835 -118 835 C-117.87625 835.598125 -117.7525 836.19625 -117.625 836.8125 C-117.04524015 839.26231348 -117.04524015 839.26231348 -115 842 C-114.34 842 -113.68 842 -113 842 C-113 842.99 -113 843.98 -113 845 C-112.01 845 -111.02 845 -110 845 C-110 845.66 -110 846.32 -110 847 C-109.34 847 -108.68 847 -108 847 C-108 847.99 -108 848.98 -108 850 C-107.01 850 -106.02 850 -105 850 C-105 850.66 -105 851.32 -105 852 C-104.34 852 -103.68 852 -103 852 C-103 852.99 -103 853.98 -103 855 C-102.01 855 -101.02 855 -100 855 C-100 855.66 -100 856.32 -100 857 C-99.34 857 -98.68 857 -98 857 C-98 857.99 -98 858.98 -98 860 C-97.01 860 -96.02 860 -95 860 C-95 860.66 -95 861.32 -95 862 C-94.34 862 -93.68 862 -93 862 C-93 862.99 -93 863.98 -93 865 C-92.01 865 -91.02 865 -90 865 C-90 865.66 -90 866.32 -90 867 C-87.4385343 869.29648649 -86.52032428 870 -83 870 C-83 870.66 -83 871.32 -83 872 C-81.66666667 873.66666667 -81.66666667 873.66666667 -80 875 C-79.34 875 -78.68 875 -78 875 C-78 875.66 -78 876.32 -78 877 C-76.35 877 -74.7 877 -73 877 C-73 877.99 -73 878.98 -73 880 C-72.01 880 -71.02 880 -70 880 C-70 880.66 -70 881.32 -70 882 C-69.0409375 882.185625 -69.0409375 882.185625 -68.0625 882.375 C-67.381875 882.58125 -66.70125 882.7875 -66 883 C-65.67 883.66 -65.34 884.32 -65 885 C-64.34 885 -63.68 885 -63 885 C-63 885.66 -63 886.32 -63 887 C-61.35 887 -59.7 887 -58 887 C-58 887.99 -58 888.98 -58 890 C-56.35 890 -54.7 890 -53 890 C-53 890.66 -53 891.32 -53 892 C-51.35 892.33 -49.7 892.66 -48 893 C-48 893.66 -48 894.32 -48 895 C-44.7 895.99 -41.4 896.98 -38 898 C-38 898.66 -38 899.32 -38 900 C-36.35 900 -34.7 900 -33 900 C-33 900.66 -33 901.32 -33 902 C-31.35 902 -29.7 902 -28 902 C-28 902.99 -28 903.98 -28 905 C-25.36 905 -22.72 905 -20 905 C-20 905.66 -20 906.32 -20 907 C-17.69 907 -15.38 907 -13 907 C-13 907.99 -13 908.98 -13 910 C-11.700625 910.144375 -10.40125 910.28875 -9.0625 910.4375 C-5.125 910.875 -5.125 910.875 -4 912 C-2.15108054 912.23363881 -0.29511969 912.41303635 1.5625 912.5625 C2.57441406 912.64628906 3.58632813 912.73007812 4.62890625 912.81640625 C5.41136719 912.87699219 6.19382812 912.93757812 7 913 C7 913.66 7 914.32 7 915 C7.85464844 915.06058594 8.70929688 915.12117187 9.58984375 915.18359375 C10.69457031 915.26738281 11.79929687 915.35117187 12.9375 915.4375 C14.59072266 915.55931641 14.59072266 915.55931641 16.27734375 915.68359375 C19 916 19 916 20 917 C22.14386657 917.15858842 24.29266838 917.25129298 26.44140625 917.31640625 C27.74658203 917.35830078 29.05175781 917.40019531 30.39648438 917.44335938 C31.7851533 917.48317608 33.17382522 917.52288825 34.5625 917.5625 C35.95509183 917.60567989 37.34767028 917.649294 38.74023438 917.69335938 C42.16004801 917.79985876 45.57993763 917.90186923 49 918 C49.33 918.66 49.66 919.32 50 920 C50.66 920 51.32 920 52 920 C52.33 919.34 52.66 918.68 53 918 C53.87325928 917.97494385 54.74651855 917.9498877 55.64624023 917.92407227 C58.87602552 917.82912291 62.10564154 917.72987971 65.33520508 917.62768555 C66.73489199 917.58428566 68.13463359 917.54261436 69.53442383 917.50268555 C71.54261495 917.44510555 73.55061149 917.38086 75.55859375 917.31640625 C76.76829834 917.27974854 77.97800293 917.24309082 79.22436523 917.20532227 C81.90705456 917.31061734 81.90705456 917.31061734 83 916 C85.01594582 915.76572222 87.038474 915.58663876 89.0625 915.4375 C90.16722656 915.35371094 91.27195312 915.26992188 92.41015625 915.18359375 C93.26480469 915.12300781 94.11945313 915.06242188 95 915 C95 914.34 95 913.68 95 913 C95.78246094 912.93941406 96.56492187 912.87882813 97.37109375 912.81640625 C98.38300781 912.73261719 99.39492188 912.64882813 100.4375 912.5625 C101.44683594 912.48128906 102.45617187 912.40007812 103.49609375 912.31640625 C105.93640779 912.26788532 105.93640779 912.26788532 107 911 C109.65463121 910.54540142 112.32189138 910.29756762 115 910 C115 909.01 115 908.02 115 907 C117.31 907 119.62 907 122 907 C122 906.34 122 905.68 122 905 C124.64 905 127.28 905 130 905 C130 904.01 130 903.02 130 902 C131.65 902 133.3 902 135 902 C135 901.34 135 900.68 135 900 C136.65 900 138.3 900 140 900 C140 899.34 140 898.68 140 898 C141.093125 897.690625 142.18625 897.38125 143.3125 897.0625 C145.55407994 896.41662103 147.7869351 895.7376883 150 895 C150 894.34 150 893.68 150 893 C151.65 892.67 153.3 892.34 155 892 C155 891.34 155 890.68 155 890 C156.65 890 158.3 890 160 890 C160 889.01 160 888.02 160 887 C161.65 887 163.3 887 165 887 C165 886.34 165 885.68 165 885 C165.66 885 166.32 885 167 885 C167.33 884.34 167.66 883.68 168 883 C170.0625 882.375 170.0625 882.375 172 882 C172 881.34 172 880.68 172 880 C172.99 880 173.98 880 175 880 C175 879.01 175 878.02 175 877 C176.65 877 178.3 877 180 877 C180 876.34 180 875.68 180 875 C180.66 875 181.32 875 182 875 C182 874.01 182 873.02 182 872 C182.99 872 183.98 872 185 872 C185 871.34 185 870.68 185 870 C185.99 870 186.98 870 188 870 C188 869.34 188 868.68 188 868 C189.32 867.67 190.64 867.34 192 867 C192 866.34 192 865.68 192 865 C192.99 865 193.98 865 195 865 C195 864.01 195 863.02 195 862 C195.66 862 196.32 862 197 862 C197 861.34 197 860.68 197 860 C197.99 860 198.98 860 200 860 C200 859.01 200 858.02 200 857 C200.66 857 201.32 857 202 857 C202 856.34 202 855.68 202 855 C202.99 855 203.98 855 205 855 C205 854.01 205 853.02 205 852 C205.66 852 206.32 852 207 852 C207 851.34 207 850.68 207 850 C207.99 850 208.98 850 210 850 C210 849.01 210 848.02 210 847 C210.66 847 211.32 847 212 847 C212 846.34 212 845.68 212 845 C212.99 845 213.98 845 215 845 C215 844.01 215 843.02 215 842 C215.66 842 216.32 842 217 842 C217.33 840.68 217.66 839.36 218 838 C218.66 838 219.32 838 220 838 C220 837.01 220 836.02 220 835 C220.66 835 221.32 835 222 835 C222 834.01 222 833.02 222 832 C222.99 832 223.98 832 225 832 C225 831.34 225 830.68 225 830 C225.66 830 226.32 830 227 830 C227 828.35 227 826.7 227 825 C227.99 825 228.98 825 230 825 C230 824.01 230 823.02 230 822 C230.66 822 231.32 822 232 822 C232.12375 821.360625 232.2475 820.72125 232.375 820.0625 C232.58125 819.381875 232.7875 818.70125 233 818 C233.66 817.67 234.32 817.34 235 817 C235 816.34 235 815.68 235 815 C235.66 815 236.32 815 237 815 C237 813.35 237 811.7 237 810 C237.99 810 238.98 810 240 810 C240 808.35 240 806.7 240 805 C240.66 805 241.32 805 242 805 C242.33 803.35 242.66 801.7 243 800 C243.66 800 244.32 800 245 800 C246.485 795.05 246.485 795.05 248 790 C248.66 790 249.32 790 250 790 C250 788.35 250 786.7 250 785 C250.66 785 251.32 785 252 785 C252 783.35 252 781.7 252 780 C252.99 780 253.98 780 255 780 C255 777.36 255 774.72 255 772 C255.66 772 256.32 772 257 772 C257 769.69 257 767.38 257 765 C257.99 765 258.98 765 260 765 C260.144375 763.700625 260.28875 762.40125 260.4375 761.0625 C260.875 757.125 260.875 757.125 262 756 C262.23363881 754.15108054 262.41303635 752.29511969 262.5625 750.4375 C262.64628906 749.42558594 262.73007812 748.41367187 262.81640625 747.37109375 C262.87699219 746.58863281 262.93757813 745.80617188 263 745 C263.66 745 264.32 745 265 745 C265.06058594 744.14535156 265.12117188 743.29070313 265.18359375 742.41015625 C265.26738281 741.30542969 265.35117187 740.20070313 265.4375 739.0625 C265.51871094 737.96035156 265.59992188 736.85820313 265.68359375 735.72265625 C266 733 266 733 267 732 C267.13421483 729.89069407 267.20362494 727.77720744 267.24609375 725.6640625 C267.27896484 724.37242187 267.31183594 723.08078125 267.34570312 721.75 C267.39309789 719.68722262 267.43751007 717.62447157 267.47680664 715.56152344 C267.51655293 713.57468521 267.56866007 711.58810639 267.62109375 709.6015625 C267.6461499 708.40869629 267.67120605 707.21583008 267.69702148 705.98681641 C268 703 268 703 270 700 C270 694.06 270 688.12 270 682 C257.46 682 244.92 682 232 682 C232 698.5 232 715 232 732 C231.34 732 230.68 732 230 732 C229.95101563 732.85464844 229.90203125 733.70929687 229.8515625 734.58984375 C229.77679687 735.69457031 229.70203125 736.79929687 229.625 737.9375 C229.55539062 739.03964844 229.48578125 740.14179687 229.4140625 741.27734375 C229.27742188 742.17582031 229.14078125 743.07429687 229 744 C228.34 744.33 227.68 744.66 227 745 C226.5709742 747.09341518 226.5709742 747.09341518 226.4375 749.5 C226.09605489 753.90394511 226.09605489 753.90394511 225 755 C224.95907063 757.33297433 224.95758277 759.66705225 225 762 C224.01 762 223.02 762 222 762 C222 764.31 222 766.62 222 769 C221.34 769 220.68 769 220 769 C219.87625 769.804375 219.7525 770.60875 219.625 771.4375 C219.315625 772.7059375 219.315625 772.7059375 219 774 C218.34 774.33 217.68 774.66 217 775 C217 776.65 217 778.3 217 780 C216.34 780 215.68 780 215 780 C215 781.65 215 783.3 215 785 C214.01 785 213.02 785 212 785 C212 786.65 212 788.3 212 790 C211.34 790 210.68 790 210 790 C209.87625 790.639375 209.7525 791.27875 209.625 791.9375 C209.315625 792.9584375 209.315625 792.9584375 209 794 C208.34 794.33 207.68 794.66 207 795 C207 796.32 207 797.64 207 799 C206.34 799 205.68 799 205 799 C205 799.99 205 800.98 205 802 C204.01 802 203.02 802 202 802 C201.319375 803.7015625 201.319375 803.7015625 200.625 805.4375 C199 809 199 809 197 810 C197 810.66 197 811.32 197 812 C196.34 812 195.68 812 195 812 C194.67 813.65 194.34 815.3 194 817 C193.34 817 192.68 817 192 817 C192 817.99 192 818.98 192 820 C191.34 820 190.68 820 190 820 C190 820.66 190 821.32 190 822 C189.01 822 188.02 822 187 822 C187 822.99 187 823.98 187 825 C186.34 825 185.68 825 185 825 C185 825.66 185 826.32 185 827 C184.01 827 183.02 827 182 827 C182 827.99 182 828.98 182 830 C181.34 830 180.68 830 180 830 C180 830.66 180 831.32 180 832 C179.01 832 178.02 832 177 832 C177 832.99 177 833.98 177 835 C176.34 835 175.68 835 175 835 C175 835.66 175 836.32 175 837 C174.01 837 173.02 837 172 837 C172 837.99 172 838.98 172 840 C171.34 840 170.68 840 170 840 C170 840.66 170 841.32 170 842 C169.01 842 168.02 842 167 842 C167 842.66 167 843.32 167 844 C165.35 844.33 163.7 844.66 162 845 C162 845.66 162 846.32 162 847 C161.34 847 160.68 847 160 847 C159.38125 847.639375 158.7625 848.27875 158.125 848.9375 C155.96479217 851.03417231 154.91223279 851.58396674 152 852 C152 852.99 152 853.98 152 855 C151.01 855 150.02 855 149 855 C149 855.66 149 856.32 149 857 C147.68 857 146.36 857 145 857 C144.67 857.66 144.34 858.32 144 859 C141.9375 859.625 141.9375 859.625 140 860 C140 860.66 140 861.32 140 862 C138.35 862 136.7 862 135 862 C135 862.99 135 863.98 135 865 C133.35 865 131.7 865 130 865 C130 865.66 130 866.32 130 867 C128.35 867 126.7 867 125 867 C124.67 867.66 124.34 868.32 124 869 C121.4375 869.625 121.4375 869.625 119 870 C119 870.66 119 871.32 119 872 C116.69 872 114.38 872 112 872 C112 872.99 112 873.98 112 875 C110.865625 874.979375 109.73125 874.95875 108.5625 874.9375 C105.18424326 874.58422523 105.18424326 874.58422523 104 876 C101.68047431 876.28101946 99.36114486 876.44782625 97.03125 876.62109375 C96.3609375 876.74613281 95.690625 876.87117187 95 877 C94.67 877.66 94.34 878.32 94 879 C91.27734375 879.4140625 91.27734375 879.4140625 87.9375 879.625 C86.28041016 879.73714844 86.28041016 879.73714844 84.58984375 879.8515625 C83.73519531 879.90054688 82.88054687 879.94953125 82 880 C82 880.66 82 881.32 82 882 C61.54 882 41.08 882 20 882 C20 881.34 20 880.68 20 880 C18.71802734 879.92652344 18.71802734 879.92652344 17.41015625 879.8515625 C16.30542969 879.77679687 15.20070313 879.70203125 14.0625 879.625 C12.96035156 879.55539062 11.85820312 879.48578125 10.72265625 879.4140625 C9.82417969 879.27742187 8.92570313 879.14078125 8 879 C7.67 878.34 7.34 877.68 7 877 C4.90658482 876.5709742 4.90658482 876.5709742 2.5 876.4375 C-1.90394511 876.09605489 -1.90394511 876.09605489 -3 875 C-5.33297433 874.95907063 -7.66705225 874.95758277 -10 875 C-10 874.01 -10 873.02 -10 872 C-12.31 872 -14.62 872 -17 872 C-17 871.34 -17 870.68 -17 870 C-18.2065625 869.814375 -18.2065625 869.814375 -19.4375 869.625 C-20.283125 869.41875 -21.12875 869.2125 -22 869 C-22.33 868.34 -22.66 867.68 -23 867 C-24.65 867 -26.3 867 -28 867 C-28 866.34 -28 865.68 -28 865 C-29.65 865 -31.3 865 -33 865 C-33 864.01 -33 863.02 -33 862 C-34.65 862 -36.3 862 -38 862 C-38 861.34 -38 860.68 -38 860 C-38.9590625 859.814375 -38.9590625 859.814375 -39.9375 859.625 C-40.618125 859.41875 -41.29875 859.2125 -42 859 C-42.33 858.34 -42.66 857.68 -43 857 C-44.32 857 -45.64 857 -47 857 C-47 856.34 -47 855.68 -47 855 C-47.99 855 -48.98 855 -50 855 C-50 854.01 -50 853.02 -50 852 C-51.134375 851.54625 -52.26875 851.0925 -53.4375 850.625 C-57 849 -57 849 -58 847 C-58.66 847 -59.32 847 -60 847 C-60 846.34 -60 845.68 -60 845 C-61.65 844.67 -63.3 844.34 -65 844 C-65 843.34 -65 842.68 -65 842 C-65.99 842 -66.98 842 -68 842 C-68 841.34 -68 840.68 -68 840 C-68.66 840 -69.32 840 -70 840 C-70 839.01 -70 838.02 -70 837 C-70.99 837 -71.98 837 -73 837 C-73 836.34 -73 835.68 -73 835 C-73.66 835 -74.32 835 -75 835 C-75 834.01 -75 833.02 -75 832 C-75.99 832 -76.98 832 -78 832 C-78 831.34 -78 830.68 -78 830 C-78.66 830 -79.32 830 -80 830 C-80 829.01 -80 828.02 -80 827 C-80.99 827 -81.98 827 -83 827 C-83 826.34 -83 825.68 -83 825 C-83.66 825 -84.32 825 -85 825 C-85 824.01 -85 823.02 -85 822 C-85.99 822 -86.98 822 -88 822 C-88 821.34 -88 820.68 -88 820 C-88.66 820 -89.32 820 -90 820 C-90 819.01 -90 818.02 -90 817 C-90.66 817 -91.32 817 -92 817 C-92.495 814.525 -92.495 814.525 -93 812 C-93.66 812 -94.32 812 -95 812 C-95 811.34 -95 810.68 -95 810 C-96.33333333 808.33333333 -96.33333333 808.33333333 -98 807 C-98.66 807 -99.32 807 -100 807 C-100 805.35 -100 803.7 -100 802 C-100.99 802 -101.98 802 -103 802 C-103 801.01 -103 800.02 -103 799 C-103.66 799 -104.32 799 -105 799 C-105 797.68 -105 796.36 -105 795 C-105.99 794.505 -105.99 794.505 -107 794 C-107.625 791.9375 -107.625 791.9375 -108 790 C-108.66 790 -109.32 790 -110 790 C-110 788.35 -110 786.7 -110 785 C-110.99 785 -111.98 785 -113 785 C-113 783.35 -113 781.7 -113 780 C-113.66 780 -114.32 780 -115 780 C-115 778.35 -115 776.7 -115 775 C-115.99 774.505 -115.99 774.505 -117 774 C-117.625 771.4375 -117.625 771.4375 -118 769 C-118.66 769 -119.32 769 -120 769 C-120 766.69 -120 764.38 -120 762 C-120.99 762 -121.98 762 -123 762 C-122.979375 760.865625 -122.95875 759.73125 -122.9375 758.5625 C-122.58422523 755.18424326 -122.58422523 755.18424326 -124 754 C-124.28101946 751.68047431 -124.44782625 749.36114486 -124.62109375 747.03125 C-124.74613281 746.3609375 -124.87117188 745.690625 -125 745 C-125.99 744.505 -125.99 744.505 -127 744 C-127.4140625 741.27734375 -127.4140625 741.27734375 -127.625 737.9375 C-127.69976562 736.83277344 -127.77453125 735.72804688 -127.8515625 734.58984375 C-127.90054688 733.73519531 -127.94953125 732.88054688 -128 732 C-128.66 732 -129.32 732 -130 732 C-130 715.5 -130 699 -130 682 C-142.54 682 -155.08 682 -168 682 Z M-88 682 C-88 687.94 -88 693.88 -88 700 C-87.34 700 -86.68 700 -86 700 C-85.67 708.25 -85.34 716.5 -85 725 C-84.34 725 -83.68 725 -83 725 C-83 728.3 -83 731.6 -83 735 C-82.34 735 -81.68 735 -81 735 C-80.67 738.3 -80.34 741.6 -80 745 C-79.34 745 -78.68 745 -78 745 C-78 746.65 -78 748.3 -78 750 C-77.34 750 -76.68 750 -76 750 C-75.67 752.31 -75.34 754.62 -75 757 C-74.34 757 -73.68 757 -73 757 C-73 758.65 -73 760.3 -73 762 C-72.01 762 -71.02 762 -70 762 C-70 763.65 -70 765.3 -70 767 C-69.34 767 -68.68 767 -68 767 C-68 767.99 -68 768.98 -68 770 C-67.34 770 -66.68 770 -66 770 C-65.67 771.65 -65.34 773.3 -65 775 C-64.34 775 -63.68 775 -63 775 C-62.67 776.65 -62.34 778.3 -62 780 C-61.34 780 -60.68 780 -60 780 C-60 780.66 -60 781.32 -60 782 C-59.34 782 -58.68 782 -58 782 C-58 782.99 -58 783.98 -58 785 C-57.01 785 -56.02 785 -55 785 C-54.855625 785.598125 -54.71125 786.19625 -54.5625 786.8125 C-54.1127561 788.56150404 -53.57107659 790.28677023 -53 792 C-52.01 792 -51.02 792 -50 792 C-50 792.99 -50 793.98 -50 795 C-49.34 795 -48.68 795 -48 795 C-48 795.66 -48 796.32 -48 797 C-47.01 797 -46.02 797 -45 797 C-45 797.99 -45 798.98 -45 800 C-44.34 800 -43.68 800 -43 800 C-43 800.66 -43 801.32 -43 802 C-42.01 802 -41.02 802 -40 802 C-40 802.99 -40 803.98 -40 805 C-37.35261084 806.4606285 -36.10551666 807 -33 807 C-33 807.99 -33 808.98 -33 810 C-32.01 810 -31.02 810 -30 810 C-30 810.66 -30 811.32 -30 812 C-29.34 812 -28.68 812 -28 812 C-27.67 812.99 -27.34 813.98 -27 815 C-25.68 815 -24.36 815 -23 815 C-23 815.66 -23 816.32 -23 817 C-21.35 817.33 -19.7 817.66 -18 818 C-18 818.66 -18 819.32 -18 820 C-17.01 820 -16.02 820 -15 820 C-15 820.66 -15 821.32 -15 822 C-14.0409375 822.185625 -14.0409375 822.185625 -13.0625 822.375 C-12.381875 822.58125 -11.70125 822.7875 -11 823 C-10.67 823.66 -10.34 824.32 -10 825 C-8.35 825 -6.7 825 -5 825 C-5 825.66 -5 826.32 -5 827 C-2.69 827.33 -0.38 827.66 2 828 C2 828.66 2 829.32 2 830 C3.65 830 5.3 830 7 830 C7 830.66 7 831.32 7 832 C10.3 832.33 13.6 832.66 17 833 C17 833.66 17 834.32 17 835 C20.3 835 23.6 835 27 835 C27 835.66 27 836.32 27 837 C42.84 837 58.68 837 75 837 C75 836.34 75 835.68 75 835 C78.3 835 81.6 835 85 835 C85 834.34 85 833.68 85 833 C88.3 832.67 91.6 832.34 95 832 C95 831.34 95 830.68 95 830 C96.65 830 98.3 830 100 830 C100 829.34 100 828.68 100 828 C102.31 827.67 104.62 827.34 107 827 C107 826.34 107 825.68 107 825 C108.65 825 110.3 825 112 825 C112 824.01 112 823.02 112 822 C113.65 822 115.3 822 117 822 C117 821.34 117 820.68 117 820 C117.99 820 118.98 820 120 820 C120 819.34 120 818.68 120 818 C121.65 817.67 123.3 817.34 125 817 C125 816.34 125 815.68 125 815 C126.65 814.67 128.3 814.34 130 814 C130 813.34 130 812.68 130 812 C130.66 812 131.32 812 132 812 C132 811.34 132 810.68 132 810 C132.99 810 133.98 810 135 810 C135 809.01 135 808.02 135 807 C135.598125 806.855625 136.19625 806.71125 136.8125 806.5625 C138.56150404 806.1127561 140.28677023 805.57107659 142 805 C142 804.01 142 803.02 142 802 C142.99 802 143.98 802 145 802 C145 801.34 145 800.68 145 800 C145.66 800 146.32 800 147 800 C147 799.01 147 798.02 147 797 C147.99 797 148.98 797 150 797 C150 796.34 150 795.68 150 795 C150.66 795 151.32 795 152 795 C152 794.01 152 793.02 152 792 C152.99 792 153.98 792 155 792 C156.4606285 789.35261084 157 788.10551666 157 785 C157.99 785 158.98 785 160 785 C160 784.01 160 783.02 160 782 C160.66 782 161.32 782 162 782 C162 781.34 162 780.68 162 780 C162.99 779.67 163.98 779.34 165 779 C165 777.68 165 776.36 165 775 C165.66 775 166.32 775 167 775 C167.33 773.35 167.66 771.7 168 770 C168.66 770 169.32 770 170 770 C170 769.01 170 768.02 170 767 C170.66 767 171.32 767 172 767 C172.12375 766.360625 172.2475 765.72125 172.375 765.0625 C172.684375 764.0415625 172.684375 764.0415625 173 763 C173.66 762.67 174.32 762.34 175 762 C175 760.35 175 758.7 175 757 C175.66 757 176.32 757 177 757 C177.33 754.69 177.66 752.38 178 750 C178.66 750 179.32 750 180 750 C180 748.35 180 746.7 180 745 C180.66 745 181.32 745 182 745 C182.33 741.7 182.66 738.4 183 735 C183.66 735 184.32 735 185 735 C185 731.7 185 728.4 185 725 C185.66 725 186.32 725 187 725 C187.33 716.75 187.66 708.5 188 700 C188.66 700 189.32 700 190 700 C190 694.06 190 688.12 190 682 C98.26 682 6.52 682 -88 682 Z M32 962 C32 974.54 32 987.08 32 1000 C44.54 1000 57.08 1000 70 1000 C70 987.46 70 974.92 70 962 C57.46 962 44.92 962 32 962 Z M-8 1042 C-8.33 1042.66 -8.66 1043.32 -9 1044 C-11.3306218 1044.35179197 -13.66435067 1044.68330179 -16 1045 C-18.33588323 1045.95584438 -18.33588323 1045.95584438 -20 1047 C-20 1047.99 -20 1048.98 -20 1050 C-20.99 1050 -21.98 1050 -23 1050 C-24.60852372 1052.68087287 -25.07056307 1054.52040267 -25.5 1057.6875 C-25.665 1058.780625 -25.83 1059.87375 -26 1061 C-26.66 1061.33 -27.32 1061.66 -28 1062 C-28 1067.94 -28 1073.88 -28 1080 C24.14 1080 76.28 1080 130 1080 C130 1074.06 130 1068.12 130 1062 C129.34 1061.67 128.68 1061.34 128 1061 C127.64820803 1058.6693782 127.31669821 1056.33564933 127 1054 C126.04415562 1051.66411677 126.04415562 1051.66411677 125 1050 C124.01 1050 123.02 1050 122 1050 C122 1049.01 122 1048.02 122 1047 C119.31912713 1045.39147628 117.47959733 1044.92943693 114.3125 1044.5 C113.219375 1044.335 112.12625 1044.17 111 1044 C110.67 1043.34 110.34 1042.68 110 1042 C71.06 1042 32.12 1042 -8 1042 Z M-68 1122 C-68.33 1122.66 -68.66 1123.32 -69 1124 C-71.42097485 1124.26269517 -73.75933638 1124.42174639 -76.1875 1124.5 C-81.15954684 1124.69517358 -85.38990591 1125.04123468 -90 1127 C-90.33 1127.66 -90.66 1128.32 -91 1129 C-93.0625 1129.625 -93.0625 1129.625 -95 1130 C-95 1130.66 -95 1131.32 -95 1132 C-96.65 1132 -98.3 1132 -100 1132 C-100 1132.99 -100 1133.98 -100 1135 C-100.99 1135 -101.98 1135 -103 1135 C-103 1135.66 -103 1136.32 -103 1137 C-103.99 1137 -104.98 1137 -106 1137 C-106 1137.66 -106 1138.32 -106 1139 C-106.598125 1139.061875 -107.19625 1139.12375 -107.8125 1139.1875 C-110.90339529 1140.33554682 -111.5880344 1142.10547052 -113 1145 C-113 1145.66 -113 1146.32 -113 1147 C-113.66 1147 -114.32 1147 -115 1147 C-115 1147.99 -115 1148.98 -115 1150 C-115.99 1150 -116.98 1150 -118 1150 C-118.20496094 1150.55429688 -118.40992188 1151.10859375 -118.62109375 1151.6796875 C-118.89050781 1152.40414063 -119.15992188 1153.12859375 -119.4375 1153.875 C-119.70433594 1154.59429688 -119.97117187 1155.31359375 -120.24609375 1156.0546875 C-121 1158 -121 1158 -122 1160 C-8.15 1160 105.7 1160 223 1160 C222.01 1156.7 221.02 1153.4 220 1150 C219.01 1150 218.02 1150 217 1150 C217 1149.01 217 1148.02 217 1147 C216.34 1147 215.68 1147 215 1147 C213.79371992 1144.66785852 212.8345262 1142.50357861 212 1140 C209.98491642 1139.26676204 209.98491642 1139.26676204 208 1139 C208 1138.34 208 1137.68 208 1137 C207.01 1137 206.02 1137 205 1137 C205 1136.34 205 1135.68 205 1135 C204.01 1135 203.02 1135 202 1135 C202 1134.01 202 1133.02 202 1132 C200.35 1132 198.7 1132 197 1132 C197 1131.34 197 1130.68 197 1130 C196.360625 1129.87625 195.72125 1129.7525 195.0625 1129.625 C194.381875 1129.41875 193.70125 1129.2125 193 1129 C192.67 1128.34 192.34 1127.68 192 1127 C186.12486242 1124.67727119 180.18030657 1124.60759186 173.9140625 1124.34375 C172.95242188 1124.2303125 171.99078125 1124.116875 171 1124 C170.67 1123.34 170.34 1122.68 170 1122 C91.46 1122 12.92 1122 -68 1122 Z " fill="#F7D262" transform="translate(329,39)"/>
<path d="M0 0 C99.66 0 199.32 0 302 0 C302 0.66 302 1.32 302 2 C303.65 2.33 305.3 2.66 307 3 C307 3.66 307 4.32 307 5 C307.66 5 308.32 5 309 5 C309.33 6.65 309.66 8.3 310 10 C310.66 10 311.32 10 312 10 C312 70.06 312 130.12 312 192 C311.34 192 310.68 192 310 192 C309.67 193.65 309.34 195.3 309 197 C308.34 197 307.68 197 307 197 C307 197.66 307 198.32 307 199 C305.35 199.33 303.7 199.66 302 200 C302 200.66 302 201.32 302 202 C202.34 202 102.68 202 0 202 C0 201.34 0 200.68 0 200 C-1.65 199.67 -3.3 199.34 -5 199 C-5 198.34 -5 197.68 -5 197 C-5.66 197 -6.32 197 -7 197 C-7.33 195.35 -7.66 193.7 -8 192 C-8.66 192 -9.32 192 -10 192 C-10 131.94 -10 71.88 -10 10 C-9.34 10 -8.68 10 -8 10 C-7.67 8.35 -7.34 6.7 -7 5 C-6.34 5 -5.68 5 -5 5 C-5 4.34 -5 3.68 -5 3 C-3.35 2.67 -1.7 2.34 0 2 C0 1.34 0 0.68 0 0 Z M32 42 C32 80.94 32 119.88 32 160 C110.54 160 189.08 160 270 160 C270 121.06 270 82.12 270 42 C191.46 42 112.92 42 32 42 Z " fill="#F7D263" transform="translate(449,159)"/>
<path d="M0 0 C46.86 0 93.72 0 142 0 C142 0.66 142 1.32 142 2 C143.65 2.33 145.3 2.66 147 3 C147 3.66 147 4.32 147 5 C147.66 5 148.32 5 149 5 C149.33 6.65 149.66 8.3 150 10 C150.66 10 151.32 10 152 10 C152 70.06 152 130.12 152 192 C151.34 192 150.68 192 150 192 C149.67 193.65 149.34 195.3 149 197 C148.34 197 147.68 197 147 197 C147 197.66 147 198.32 147 199 C145.35 199.33 143.7 199.66 142 200 C142 200.66 142 201.32 142 202 C95.14 202 48.28 202 0 202 C0 201.34 0 200.68 0 200 C-1.65 199.67 -3.3 199.34 -5 199 C-5 198.34 -5 197.68 -5 197 C-5.66 197 -6.32 197 -7 197 C-7.33 195.35 -7.66 193.7 -8 192 C-8.66 192 -9.32 192 -10 192 C-10 131.94 -10 71.88 -10 10 C-9.34 10 -8.68 10 -8 10 C-7.67 8.35 -7.34 6.7 -7 5 C-6.34 5 -5.68 5 -5 5 C-5 4.34 -5 3.68 -5 3 C-3.35 2.67 -1.7 2.34 0 2 C0 1.34 0 0.68 0 0 Z M32 42 C32 80.94 32 119.88 32 160 C57.74 160 83.48 160 110 160 C110 121.06 110 82.12 110 42 C84.26 42 58.52 42 32 42 Z " fill="#F7D263" transform="translate(889,919)"/>
<path d="M0 0 C46.86 0 93.72 0 142 0 C142 0.66 142 1.32 142 2 C143.65 2.33 145.3 2.66 147 3 C147 3.66 147 4.32 147 5 C147.66 5 148.32 5 149 5 C149.33 6.65 149.66 8.3 150 10 C150.66 10 151.32 10 152 10 C152 70.06 152 130.12 152 192 C151.34 192 150.68 192 150 192 C149.67 193.65 149.34 195.3 149 197 C148.34 197 147.68 197 147 197 C147 197.66 147 198.32 147 199 C145.35 199.33 143.7 199.66 142 200 C142 200.66 142 201.32 142 202 C95.14 202 48.28 202 0 202 C0 201.34 0 200.68 0 200 C-1.65 199.67 -3.3 199.34 -5 199 C-5 198.34 -5 197.68 -5 197 C-5.66 197 -6.32 197 -7 197 C-7.33 195.35 -7.66 193.7 -8 192 C-8.66 192 -9.32 192 -10 192 C-10 131.94 -10 71.88 -10 10 C-9.34 10 -8.68 10 -8 10 C-7.67 8.35 -7.34 6.7 -7 5 C-6.34 5 -5.68 5 -5 5 C-5 4.34 -5 3.68 -5 3 C-3.35 2.67 -1.7 2.34 0 2 C0 1.34 0 0.68 0 0 Z M32 42 C32 80.94 32 119.88 32 160 C57.74 160 83.48 160 110 160 C110 121.06 110 82.12 110 42 C84.26 42 58.52 42 32 42 Z " fill="#F7D263" transform="translate(689,919)"/>
<path d="M0 0 C112.86 0 225.72 0 342 0 C342 0.66 342 1.32 342 2 C343.65 2.33 345.3 2.66 347 3 C347 3.66 347 4.32 347 5 C347.66 5 348.32 5 349 5 C349.33 6.65 349.66 8.3 350 10 C350.66 10 351.32 10 352 10 C352 17.26 352 24.52 352 32 C351.34 32 350.68 32 350 32 C349.67 33.65 349.34 35.3 349 37 C348.34 37 347.68 37 347 37 C347 37.66 347 38.32 347 39 C345.35 39.33 343.7 39.66 342 40 C342 40.66 342 41.32 342 42 C229.14 42 116.28 42 0 42 C0 41.34 0 40.68 0 40 C-1.65 39.67 -3.3 39.34 -5 39 C-5 38.34 -5 37.68 -5 37 C-5.66 37 -6.32 37 -7 37 C-7.33 35.35 -7.66 33.7 -8 32 C-8.66 32 -9.32 32 -10 32 C-10 24.74 -10 17.48 -10 10 C-9.34 10 -8.68 10 -8 10 C-7.67 8.35 -7.34 6.7 -7 5 C-6.34 5 -5.68 5 -5 5 C-5 4.34 -5 3.68 -5 3 C-3.35 2.67 -1.7 2.34 0 2 C0 1.34 0 0.68 0 0 Z " fill="#F7D263" transform="translate(689,839)"/>
<path d="M0 0 C112.86 0 225.72 0 342 0 C342 0.66 342 1.32 342 2 C343.65 2.33 345.3 2.66 347 3 C347 3.66 347 4.32 347 5 C347.66 5 348.32 5 349 5 C349.33 6.65 349.66 8.3 350 10 C350.66 10 351.32 10 352 10 C352 17.26 352 24.52 352 32 C351.34 32 350.68 32 350 32 C349.67 33.65 349.34 35.3 349 37 C348.34 37 347.68 37 347 37 C347 37.66 347 38.32 347 39 C345.35 39.33 343.7 39.66 342 40 C342 40.66 342 41.32 342 42 C229.14 42 116.28 42 0 42 C0 41.34 0 40.68 0 40 C-1.65 39.67 -3.3 39.34 -5 39 C-5 38.34 -5 37.68 -5 37 C-5.66 37 -6.32 37 -7 37 C-7.33 35.35 -7.66 33.7 -8 32 C-8.66 32 -9.32 32 -10 32 C-10 24.74 -10 17.48 -10 10 C-9.34 10 -8.68 10 -8 10 C-7.67 8.35 -7.34 6.7 -7 5 C-6.34 5 -5.68 5 -5 5 C-5 4.34 -5 3.68 -5 3 C-3.35 2.67 -1.7 2.34 0 2 C0 1.34 0 0.68 0 0 Z " fill="#F7D263" transform="translate(689,679)"/>
<path d="M0 0 C60.06 0 120.12 0 182 0 C182 0.66 182 1.32 182 2 C183.65 2.33 185.3 2.66 187 3 C187 3.66 187 4.32 187 5 C187.66 5 188.32 5 189 5 C189.33 6.65 189.66 8.3 190 10 C190.66 10 191.32 10 192 10 C192 17.26 192 24.52 192 32 C191.34 32 190.68 32 190 32 C189.67 33.65 189.34 35.3 189 37 C188.34 37 187.68 37 187 37 C187 37.66 187 38.32 187 39 C184.525 39.495 184.525 39.495 182 40 C182 40.66 182 41.32 182 42 C121.94 42 61.88 42 0 42 C0 41.34 0 40.68 0 40 C-1.65 39.67 -3.3 39.34 -5 39 C-5 38.34 -5 37.68 -5 37 C-5.66 37 -6.32 37 -7 37 C-7.33 35.35 -7.66 33.7 -8 32 C-8.66 32 -9.32 32 -10 32 C-10 24.74 -10 17.48 -10 10 C-9.34 10 -8.68 10 -8 10 C-7.67 8.35 -7.34 6.7 -7 5 C-6.34 5 -5.68 5 -5 5 C-5 4.34 -5 3.68 -5 3 C-3.35 2.67 -1.7 2.34 0 2 C0 1.34 0 0.68 0 0 Z " fill="#F7D262" transform="translate(689,759)"/>
<path d="M0 0 C46.86 0 93.72 0 142 0 C142 0.66 142 1.32 142 2 C143.65 2.33 145.3 2.66 147 3 C147 3.66 147 4.32 147 5 C147.66 5 148.32 5 149 5 C149.33 6.65 149.66 8.3 150 10 C150.66 10 151.32 10 152 10 C152 17.26 152 24.52 152 32 C151.34 32 150.68 32 150 32 C149.67 33.65 149.34 35.3 149 37 C148.34 37 147.68 37 147 37 C147 37.66 147 38.32 147 39 C144.525 39.495 144.525 39.495 142 40 C142 40.66 142 41.32 142 42 C95.14 42 48.28 42 0 42 C0 41.34 0 40.68 0 40 C-1.65 39.67 -3.3 39.34 -5 39 C-5 38.34 -5 37.68 -5 37 C-5.66 37 -6.32 37 -7 37 C-7.33 35.35 -7.66 33.7 -8 32 C-8.66 32 -9.32 32 -10 32 C-10 24.74 -10 17.48 -10 10 C-9.34 10 -8.68 10 -8 10 C-7.67 8.35 -7.34 6.7 -7 5 C-6.34 5 -5.68 5 -5 5 C-5 4.34 -5 3.68 -5 3 C-3.35 2.67 -1.7 2.34 0 2 C0 1.34 0 0.68 0 0 Z " fill="#F7D262" transform="translate(889,599)"/>
<path d="M0 0 C33.66 0 67.32 0 102 0 C102 0.66 102 1.32 102 2 C103.65 2.33 105.3 2.66 107 3 C107 3.66 107 4.32 107 5 C107.66 5 108.32 5 109 5 C109.495 7.475 109.495 7.475 110 10 C110.66 10 111.32 10 112 10 C112 17.26 112 24.52 112 32 C111.34 32 110.68 32 110 32 C109.67 33.65 109.34 35.3 109 37 C108.34 37 107.68 37 107 37 C107 37.66 107 38.32 107 39 C105.35 39.33 103.7 39.66 102 40 C102 40.66 102 41.32 102 42 C68.34 42 34.68 42 0 42 C0 41.34 0 40.68 0 40 C-1.65 39.67 -3.3 39.34 -5 39 C-5 38.34 -5 37.68 -5 37 C-5.66 37 -6.32 37 -7 37 C-7.33 35.35 -7.66 33.7 -8 32 C-8.66 32 -9.32 32 -10 32 C-10 24.74 -10 17.48 -10 10 C-9.34 10 -8.68 10 -8 10 C-7.67 8.35 -7.34 6.7 -7 5 C-6.34 5 -5.68 5 -5 5 C-5 4.34 -5 3.68 -5 3 C-3.35 2.67 -1.7 2.34 0 2 C0 1.34 0 0.68 0 0 Z " fill="#F7D262" transform="translate(929,759)"/>
<path d="M0 0 C33.66 0 67.32 0 102 0 C102 0.66 102 1.32 102 2 C103.65 2.33 105.3 2.66 107 3 C107 3.66 107 4.32 107 5 C107.66 5 108.32 5 109 5 C109.495 7.475 109.495 7.475 110 10 C110.66 10 111.32 10 112 10 C112 17.26 112 24.52 112 32 C111.34 32 110.68 32 110 32 C109.67 33.65 109.34 35.3 109 37 C108.34 37 107.68 37 107 37 C107 37.66 107 38.32 107 39 C105.35 39.33 103.7 39.66 102 40 C102 40.66 102 41.32 102 42 C68.34 42 34.68 42 0 42 C0 41.34 0 40.68 0 40 C-1.65 39.67 -3.3 39.34 -5 39 C-5 38.34 -5 37.68 -5 37 C-5.66 37 -6.32 37 -7 37 C-7.33 35.35 -7.66 33.7 -8 32 C-8.66 32 -9.32 32 -10 32 C-10 24.74 -10 17.48 -10 10 C-9.34 10 -8.68 10 -8 10 C-7.67 8.35 -7.34 6.7 -7 5 C-6.34 5 -5.68 5 -5 5 C-5 4.34 -5 3.68 -5 3 C-3.35 2.67 -1.7 2.34 0 2 C0 1.34 0 0.68 0 0 Z " fill="#F7D262" transform="translate(729,599)"/>
<path d="M0 0 C33.66 0 67.32 0 102 0 C102 0.66 102 1.32 102 2 C103.65 2.33 105.3 2.66 107 3 C107 3.66 107 4.32 107 5 C107.66 5 108.32 5 109 5 C109.495 7.475 109.495 7.475 110 10 C110.66 10 111.32 10 112 10 C112 17.26 112 24.52 112 32 C111.34 32 110.68 32 110 32 C109.67 33.65 109.34 35.3 109 37 C108.34 37 107.68 37 107 37 C107 37.66 107 38.32 107 39 C105.35 39.33 103.7 39.66 102 40 C102 40.66 102 41.32 102 42 C68.34 42 34.68 42 0 42 C0 41.34 0 40.68 0 40 C-1.65 39.67 -3.3 39.34 -5 39 C-5 38.34 -5 37.68 -5 37 C-5.66 37 -6.32 37 -7 37 C-7.33 35.35 -7.66 33.7 -8 32 C-8.66 32 -9.32 32 -10 32 C-10 24.74 -10 17.48 -10 10 C-9.34 10 -8.68 10 -8 10 C-7.67 8.35 -7.34 6.7 -7 5 C-6.34 5 -5.68 5 -5 5 C-5 4.34 -5 3.68 -5 3 C-3.35 2.67 -1.7 2.34 0 2 C0 1.34 0 0.68 0 0 Z " fill="#F7D262" transform="translate(329,599)"/>
<path d="M0 0 C33.66 0 67.32 0 102 0 C102 0.66 102 1.32 102 2 C103.65 2.33 105.3 2.66 107 3 C107 3.66 107 4.32 107 5 C107.66 5 108.32 5 109 5 C109.495 7.475 109.495 7.475 110 10 C110.66 10 111.32 10 112 10 C112 17.26 112 24.52 112 32 C111.34 32 110.68 32 110 32 C109.67 33.65 109.34 35.3 109 37 C108.34 37 107.68 37 107 37 C107 37.66 107 38.32 107 39 C105.35 39.33 103.7 39.66 102 40 C102 40.66 102 41.32 102 42 C68.34 42 34.68 42 0 42 C0 41.34 0 40.68 0 40 C-1.65 39.67 -3.3 39.34 -5 39 C-5 38.34 -5 37.68 -5 37 C-5.66 37 -6.32 37 -7 37 C-7.33 35.35 -7.66 33.7 -8 32 C-8.66 32 -9.32 32 -10 32 C-10 24.74 -10 17.48 -10 10 C-9.34 10 -8.68 10 -8 10 C-7.67 8.35 -7.34 6.7 -7 5 C-6.34 5 -5.68 5 -5 5 C-5 4.34 -5 3.68 -5 3 C-3.35 2.67 -1.7 2.34 0 2 C0 1.34 0 0.68 0 0 Z " fill="#F7D262" transform="translate(329,519)"/>
<path d="M0 0 C0.66 0.33 1.32 0.66 2 1 C1.34 2.32 0.68 3.64 0 5 C-0.66 5 -1.32 5 -2 5 C-2.20625 5.556875 -2.4125 6.11375 -2.625 6.6875 C-4.55000774 9.92501302 -7.03850902 11.68231141 -10 14 C-10.66 13.34 -11.32 12.68 -12 12 C-11.34 12 -10.68 12 -10 12 C-10 11.34 -10 10.68 -10 10 C-9.34 10 -8.68 10 -8 10 C-7.67 9.01 -7.34 8.02 -7 7 C-6.34 7 -5.68 7 -5 7 C-5 6.34 -5 5.68 -5 5 C-4.34 5 -3.68 5 -3 5 C-2.67 4.01 -2.34 3.02 -2 2 C-1.34 2 -0.68 2 0 2 C0 1.34 0 0.68 0 0 Z " fill="#FCE149" transform="translate(234,419)"/>
<path d="M0 0 C0.99 0.66 1.98 1.32 3 2 C1.92643323 3.15498897 0.84070212 4.29867867 -0.25 5.4375 C-0.85328125 6.07558594 -1.4565625 6.71367187 -2.078125 7.37109375 C-4.10048016 9.08516306 -5.41270605 9.59358878 -8 10 C-7.67 9.01 -7.34 8.02 -7 7 C-6.34 7 -5.68 7 -5 7 C-4.67 6.01 -4.34 5.02 -4 4 C-3.34 4 -2.68 4 -2 4 C-2 3.34 -2 2.68 -2 2 C-1.34 2 -0.68 2 0 2 C0 1.34 0 0.68 0 0 Z " fill="#FCD658" transform="translate(856,417)"/>
<path d="M0 0 C0.99 0.33 1.98 0.66 3 1 C3 4.96 3 8.92 3 13 C0.41073669 10.41073669 0.62601957 8.97294721 0.375 5.375 C0.30023438 4.37210938 0.22546875 3.36921875 0.1484375 2.3359375 C0.09945312 1.56507813 0.05046875 0.79421875 0 0 Z " fill="#FFD858" transform="translate(161,741)"/>
<path d="M0 0 C2.64 0 5.28 0 8 0 C7.67 0.66 7.34 1.32 7 2 C4.67843403 2.40729228 2.3431213 2.74438677 0 3 C0 2.01 0 1.02 0 0 Z " fill="#FFE158" transform="translate(382,956)"/>
<path d="M0 0 C0.66 0 1.32 0 2 0 C0.71480435 2.86697492 -0.57129254 4.97607712 -3 7 C-3.66 7 -4.32 7 -5 7 C-5 6.34 -5 5.68 -5 5 C-4.34 5 -3.68 5 -3 5 C-2.67 4.01 -2.34 3.02 -2 2 C-1.34 2 -0.68 2 0 2 C0 1.34 0 0.68 0 0 Z " fill="#FBD865" transform="translate(229,424)"/>
</svg>
